# Blender 3.4.1
# www.blender.org
mtllib Base.mtl
o Cylinder
v 0.000000 0.000000 0.000000
v -0.000000 0.200000 0.000000
v 0.000000 0.000000 -1.000000
v -0.000000 0.200000 -0.800000
v 0.258819 0.000000 -0.965926
v 0.207055 0.200000 -0.772741
v 0.500000 0.000000 -0.866025
v 0.400000 0.200000 -0.692820
v 0.707107 0.000000 -0.707107
v 0.565685 0.200000 -0.565685
v 0.866025 0.000000 -0.500000
v 0.692820 0.200000 -0.400000
v 0.965926 0.000000 -0.258819
v 0.772741 0.200000 -0.207055
v 1.000000 0.000000 0.000000
v 0.800000 0.200000 0.000000
v 0.965926 0.000000 0.258819
v 0.772741 0.200000 0.207055
v 0.866025 0.000000 0.500000
v 0.692820 0.200000 0.400000
v 0.707107 0.000000 0.707107
v 0.565685 0.200000 0.565685
v 0.500000 0.000000 0.866025
v 0.400000 0.200000 0.692820
v 0.258819 0.000000 0.965926
v 0.207055 0.200000 0.772741
v 0.000000 0.000000 1.000000
v -0.000000 0.200000 0.800000
v -0.258819 0.000000 0.965926
v -0.207055 0.200000 0.772741
v -0.500000 0.000000 0.866025
v -0.400000 0.200000 0.692820
v -0.707107 0.000000 0.707107
v -0.565685 0.200000 0.565685
v -0.866025 0.000000 0.500000
v -0.692820 0.200000 0.400000
v -0.965926 0.000000 0.258819
v -0.772741 0.200000 0.207055
v -1.000000 0.000000 0.000000
v -0.800000 0.200000 0.000000
v -0.965926 0.000000 -0.258819
v -0.772741 0.200000 -0.207055
v -0.866025 0.000000 -0.500000
v -0.692820 0.200000 -0.400000
v -0.707107 0.000000 -0.707107
v -0.565685 0.200000 -0.565685
v -0.500000 0.000000 -0.866025
v -0.400000 0.200000 -0.692820
v -0.258819 0.000000 -0.965926
v -0.207055 0.200000 -0.772741
vn -0.0000 -1.0000 -0.0000
vn -0.0000 1.0000 -0.0000
vn 0.0927 0.7041 -0.7041
vn 0.2718 0.7041 -0.6561
vn 0.4323 0.7041 -0.5634
vn 0.5634 0.7041 -0.4323
vn 0.6561 0.7041 -0.2718
vn 0.7041 0.7041 -0.0927
vn 0.7041 0.7041 0.0927
vn 0.6561 0.7041 0.2718
vn 0.5634 0.7041 0.4323
vn 0.4323 0.7041 0.5634
vn 0.2718 0.7041 0.6561
vn 0.0927 0.7041 0.7041
vn -0.0927 0.7041 0.7041
vn -0.2718 0.7041 0.6561
vn -0.4323 0.7041 0.5634
vn -0.5634 0.7041 0.4323
vn -0.6561 0.7041 0.2718
vn -0.7041 0.7041 0.0927
vn -0.7041 0.7041 -0.0927
vn -0.6561 0.7041 -0.2718
vn -0.5634 0.7041 -0.4323
vn -0.4323 0.7041 -0.5634
vn -0.2718 0.7041 -0.6561
vn -0.0927 0.7041 -0.7041
vt 0.750000 0.250000
vt 0.250000 0.250000
vt 1.000000 0.500000
vt 0.750000 0.490000
vt -0.000000 0.500000
vt 0.250000 0.490000
vt 1.000000 1.000000
vt -0.000000 1.000000
vt 0.812117 0.481822
vt 0.958333 0.500000
vt 0.312117 0.481822
vt 0.958333 1.000000
vt 0.870000 0.457846
vt 0.916667 0.500000
vt 0.370000 0.457846
vt 0.916667 1.000000
vt 0.919706 0.419706
vt 0.875000 0.500000
vt 0.419706 0.419706
vt 0.875000 1.000000
vt 0.957846 0.370000
vt 0.833333 0.500000
vt 0.457846 0.370000
vt 0.833333 1.000000
vt 0.981822 0.312117
vt 0.791667 0.500000
vt 0.481822 0.312117
vt 0.791667 1.000000
vt 0.990000 0.250000
vt 0.750000 0.500000
vt 0.490000 0.250000
vt 0.750000 1.000000
vt 0.981822 0.187883
vt 0.708333 0.500000
vt 0.481822 0.187883
vt 0.708333 1.000000
vt 0.957846 0.130000
vt 0.666667 0.500000
vt 0.457846 0.130000
vt 0.666667 1.000000
vt 0.919706 0.080294
vt 0.625000 0.500000
vt 0.419706 0.080294
vt 0.625000 1.000000
vt 0.870000 0.042154
vt 0.583333 0.500000
vt 0.370000 0.042154
vt 0.583333 1.000000
vt 0.812117 0.018178
vt 0.541666 0.500000
vt 0.312117 0.018178
vt 0.541666 1.000000
vt 0.750000 0.010000
vt 0.500000 0.500000
vt 0.250000 0.010000
vt 0.500000 1.000000
vt 0.687883 0.018178
vt 0.458333 0.500000
vt 0.187883 0.018178
vt 0.458333 1.000000
vt 0.630000 0.042154
vt 0.416666 0.500000
vt 0.130000 0.042154
vt 0.416666 1.000000
vt 0.580294 0.080294
vt 0.375000 0.500000
vt 0.080294 0.080294
vt 0.375000 1.000000
vt 0.542154 0.130000
vt 0.333333 0.500000
vt 0.042154 0.130000
vt 0.333333 1.000000
vt 0.518178 0.187883
vt 0.291667 0.500000
vt 0.018178 0.187883
vt 0.291667 1.000000
vt 0.510000 0.250000
vt 0.250000 0.500000
vt 0.010000 0.250000
vt 0.250000 1.000000
vt 0.518178 0.312117
vt 0.208333 0.500000
vt 0.018178 0.312117
vt 0.208333 1.000000
vt 0.542154 0.370000
vt 0.166666 0.500000
vt 0.042154 0.370000
vt 0.166666 1.000000
vt 0.580294 0.419706
vt 0.125000 0.500000
vt 0.080294 0.419706
vt 0.125000 1.000000
vt 0.630000 0.457846
vt 0.083333 0.500000
vt 0.130000 0.457846
vt 0.083333 1.000000
vt 0.687883 0.481822
vt 0.041666 0.500000
vt 0.187883 0.481822
vt 0.041666 1.000000
s 0
f 1/1/1 3/4/1 5/9/1
f 2/2/2 6/11/2 4/6/2
f 4/7/3 5/10/3 3/3/3
f 1/1/1 5/9/1 7/13/1
f 2/2/2 8/15/2 6/11/2
f 6/12/4 7/14/4 5/10/4
f 1/1/1 7/13/1 9/17/1
f 2/2/2 10/19/2 8/15/2
f 8/16/5 9/18/5 7/14/5
f 1/1/1 9/17/1 11/21/1
f 2/2/2 12/23/2 10/19/2
f 10/20/6 11/22/6 9/18/6
f 1/1/1 11/21/1 13/25/1
f 2/2/2 14/27/2 12/23/2
f 12/24/7 13/26/7 11/22/7
f 1/1/1 13/25/1 15/29/1
f 2/2/2 16/31/2 14/27/2
f 13/26/8 16/32/8 15/30/8
f 1/1/1 15/29/1 17/33/1
f 2/2/2 18/35/2 16/31/2
f 16/32/9 17/34/9 15/30/9
f 1/1/1 17/33/1 19/37/1
f 2/2/2 20/39/2 18/35/2
f 18/36/10 19/38/10 17/34/10
f 1/1/1 19/37/1 21/41/1
f 2/2/2 22/43/2 20/39/2
f 20/40/11 21/42/11 19/38/11
f 1/1/1 21/41/1 23/45/1
f 2/2/2 24/47/2 22/43/2
f 22/44/12 23/46/12 21/42/12
f 1/1/1 23/45/1 25/49/1
f 2/2/2 26/51/2 24/47/2
f 24/48/13 25/50/13 23/46/13
f 1/1/1 25/49/1 27/53/1
f 2/2/2 28/55/2 26/51/2
f 25/50/14 28/56/14 27/54/14
f 1/1/1 27/53/1 29/57/1
f 2/2/2 30/59/2 28/55/2
f 28/56/15 29/58/15 27/54/15
f 1/1/1 29/57/1 31/61/1
f 2/2/2 32/63/2 30/59/2
f 30/60/16 31/62/16 29/58/16
f 1/1/1 31/61/1 33/65/1
f 2/2/2 34/67/2 32/63/2
f 32/64/17 33/66/17 31/62/17
f 1/1/1 33/65/1 35/69/1
f 2/2/2 36/71/2 34/67/2
f 34/68/18 35/70/18 33/66/18
f 1/1/1 35/69/1 37/73/1
f 2/2/2 38/75/2 36/71/2
f 36/72/19 37/74/19 35/70/19
f 1/1/1 37/73/1 39/77/1
f 2/2/2 40/79/2 38/75/2
f 38/76/20 39/78/20 37/74/20
f 1/1/1 39/77/1 41/81/1
f 2/2/2 42/83/2 40/79/2
f 40/80/21 41/82/21 39/78/21
f 1/1/1 41/81/1 43/85/1
f 2/2/2 44/87/2 42/83/2
f 41/82/22 44/88/22 43/86/22
f 1/1/1 43/85/1 45/89/1
f 2/2/2 46/91/2 44/87/2
f 44/88/23 45/90/23 43/86/23
f 1/1/1 45/89/1 47/93/1
f 2/2/2 48/95/2 46/91/2
f 46/92/24 47/94/24 45/90/24
f 1/1/1 47/93/1 49/97/1
f 2/2/2 50/99/2 48/95/2
f 48/96/25 49/98/25 47/94/25
f 1/1/1 49/97/1 3/4/1
f 2/2/2 4/6/2 50/99/2
f 49/98/26 4/8/26 3/5/26
f 4/7/3 6/12/3 5/10/3
f 6/12/4 8/16/4 7/14/4
f 8/16/5 10/20/5 9/18/5
f 10/20/6 12/24/6 11/22/6
f 12/24/7 14/28/7 13/26/7
f 13/26/8 14/28/8 16/32/8
f 16/32/9 18/36/9 17/34/9
f 18/36/10 20/40/10 19/38/10
f 20/40/11 22/44/11 21/42/11
f 22/44/12 24/48/12 23/46/12
f 24/48/13 26/52/13 25/50/13
f 25/50/14 26/52/14 28/56/14
f 28/56/15 30/60/15 29/58/15
f 30/60/16 32/64/16 31/62/16
f 32/64/17 34/68/17 33/66/17
f 34/68/18 36/72/18 35/70/18
f 36/72/19 38/76/19 37/74/19
f 38/76/20 40/80/20 39/78/20
f 40/80/21 42/84/21 41/82/21
f 41/82/22 42/84/22 44/88/22
f 44/88/23 46/92/23 45/90/23
f 46/92/24 48/96/24 47/94/24
f 48/96/25 50/100/25 49/98/25
f 49/98/26 50/100/26 4/8/26
