# Exported from Wings 3D 2.1.5
mtllib Cone.mtl
o cone1
#9 vertices, 14 faces
v 0.50000000 0.0000000e+0 0.0000000e+0
v 0.35355339 0.0000000e+0 0.35355339
v 3.0616170e-17 0.0000000e+0 0.50000000
v -0.35355339 0.0000000e+0 0.35355339
v -0.50000000 0.0000000e+0 6.1232340e-17
v -0.35355339 0.0000000e+0 -0.35355339
v -9.1848510e-17 0.0000000e+0 -0.50000000
v 0.35355339 0.0000000e+0 -0.35355339
v 0.0000000e+0 1.00000000 0.0000000e+0
vt 0.0000000e+0 2.4432055e-2
vt 0.0000000e+0 0.46888298
vt 0.14195043 0.89147447
vt 0.14563632 0.44576750
vt 0.15061923 0.0000000e+0
vt 0.15082689 0.44576750
vt 0.30061385 0.46888298
vt 0.30061385 0.47486984
vt 0.30065467 2.7792856e-2
vt 0.30065467 2.3115476e-2
vt 0.44256427 0.89147447
vt 0.44260510 0.44570697
vt 0.45144074 0.44576750
vt 0.45148157 0.0000000e+0
vt 0.60122769 0.47486984
vt 0.60126852 2.9102344e-2
vt 0.60126852 0.19936574
vt 0.65966139 5.8392874e-2
vt 0.65966139 0.34033861
vt 0.80063426 0.0000000e+0
vt 0.80063426 0.39873148
vt 0.94160713 5.8392874e-2
vt 0.94160713 0.34033861
vt 1.00000000 0.19936574
vn 0.61312862 -0.78998310 -6.0870609e-17
vn 0.58138050 -0.56920421 0.58138050
vn 3.2940986e-17 -9.5707287e-2 0.99540952
vn -0.43354741 -0.78998310 0.43354741
vn -0.61312862 -0.78998310 1.0145101e-16
vn -0.58138050 -0.56920421 -0.58138050
vn -1.6470493e-16 -9.5707287e-2 -0.99540952
vn 0.43354741 -0.78998310 -0.43354741
vn -6.6185796e-17 1.00000000 -4.9639347e-17
g cone1
usemtl cone1_auv
s 1
f 1/17/1 5/24/5 8/19/8
f 1/5/1 9/4/9 2/1/2
f 2/18/2 4/22/4 1/17/1
f 2/8/2 9/3/9 3/6/3
f 3/20/3 4/22/4 2/18/2
f 3/6/3 9/3/9 4/2/4
f 4/15/4 9/11/9 5/13/5
f 5/24/5 1/17/1 4/22/4
f 5/13/5 9/11/9 6/7/6
f 6/23/6 8/19/8 5/24/5
f 6/16/6 9/12/9 7/14/7
f 7/21/7 8/19/8 6/23/6
f 7/14/7 9/12/9 8/10/8
f 8/9/8 9/4/9 1/5/1
