# Exported from Wings 3D 2.2.6.1
mtllib DebugArrow.mtl
o Cylinder1
#17 vertices, 26 faces
v 0.10000000 3.0616170e-17 1.00000000
v 6.1232340e-18 -1.0000000e-1 1.00000000
v -0.10000000 1.8369702e-17 1.00000000
v -1.8369702e-17 0.10000000 1.00000000
v 0.10000000 -3.0616170e-17 0.0000000e+0
v 6.1232340e-18 -0.10000000 0.0000000e+0
v -0.10000000 -4.2862638e-17 0.0000000e+0
v -1.8369702e-17 1.0000000e-1 0.0000000e+0
v 0.20000000 -1.5308085e-17 1.00000000
v 0.14142136 -0.14142136 1.00000000
v 1.2246468e-17 -0.20000000 1.00000000
v -0.14142136 -0.14142136 1.00000000
v -0.20000000 -3.9801021e-17 1.00000000
v -0.14142136 0.14142136 1.00000000
v -3.6739404e-17 0.20000000 1.00000000
v 0.14142136 0.14142136 1.00000000
v 0.0000000e+0 1.5308085e-17 1.50000000
vt 0.0000000e+0 0.0000000e+0
vt 0.0000000e+0 0.71073253
vt 0.0000000e+0 0.83526717
vt 5.5511151e-17 8.8059293e-2
vt 1.7347235e-16 8.8059293e-2
vt 3.6475353e-2 0.92332647
vt 3.6475353e-2 0.74720788
vt 8.8059293e-2 0.71073253
vt 8.8059293e-2 8.8059293e-2
vt 8.8059293e-2 0.71073253
vt 8.8059293e-2 8.8059293e-2
vt 0.12453465 0.95980182
vt 0.12453465 0.71073253
vt 0.17611859 0.71073253
vt 0.17611859 8.8059293e-2
vt 0.17611859 0.71073253
vt 0.17611859 8.8059293e-2
vt 0.21259394 0.74720788
vt 0.21259394 0.92332647
vt 0.24906929 0.83526717
vt 0.26417788 0.71073253
vt 0.26417788 0.17917416
vt 0.26417788 8.8059293e-2
vt 0.26417788 0.37083073
vt 0.26417788 0.52767476
vt 0.27601584 0.46540743
vt 0.27942870 0.27674405
vt 0.32644520 0.46540743
vt 0.32644520 0.58994208
vt 0.38871253 0.52767476
vt 0.38871253 0.52767476
vt 0.45097985 0.46540743
vt 0.45097985 0.58994208
vt 0.51324717 0.52767476
vt 0.58498855 0.27674405
vt 0.58688122 8.8059293e-2
vt 0.59944283 0.37689555
vt 0.59948081 0.18253755
vt 0.62267323 4.8572257e-17
vt 0.62267323 8.8059293e-2
vt 0.62267323 0.32001413
vt 0.71675991 0.33526495
vt 0.72282473 0.0000000e+0
vt 0.81133662 0.32001413
vt 0.81133662 0.32342698
vt 0.90542330 0.33526495
vt 0.91148812 0.0000000e+0
vt 1.00000000 0.32342698
vn 0.81649658 6.4098756e-17 0.57735027
vn 6.4098756e-17 -0.81649658 0.57735027
vn -0.81649658 -1.2819751e-16 0.57735027
vn -9.6148134e-17 0.81649658 0.57735027
vn 0.81649658 9.6148134e-17 -0.57735027
vn 1.2819751e-16 -0.81649658 -0.57735027
vn -0.81649658 -1.2819751e-16 -0.57735027
vn -1.2819751e-16 0.81649658 -0.57735027
vn 0.60069938 3.0782924e-16 -0.79947499
vn 0.56461638 -0.56461638 -0.60201054
vn -6.3076328e-17 -0.98469945 -0.17426127
vn -0.42475860 -0.42475860 -0.79947499
vn -0.60069938 3.8478655e-17 -0.79947499
vn -0.56461638 0.56461638 -0.60201054
vn 0.0000000e+0 0.98469945 -0.17426127
vn 0.42475860 0.42475860 -0.79947499
vn -4.0035266e-17 5.2045846e-16 1.00000000
g Cylinder1
usemtl Cylinder1_auv
s 1
f 1/34/1 4/33/4 2/32/2
f 1/15/1 5/14/5 4/11/4
f 2/32/2 4/33/4 3/30/3
f 2/23/2 5/16/5 1/17/1
f 2/5/2 7/8/7 6/2/6
f 3/9/3 7/8/7 2/5/2
f 4/11/4 5/14/5 8/10/8
f 4/40/4 7/1/7 3/39/3
f 5/25/5 7/31/7 8/29/8
f 6/21/6 5/16/5 2/23/2
f 6/28/6 7/31/7 5/25/5
f 8/4/8 7/1/7 4/40/4
f 9/3/9 13/20/13 16/6/16
f 9/38/9 17/22/17 10/36/10
f 10/7/10 12/18/12 9/3/9
f 10/41/10 17/43/17 11/42/11
f 11/13/11 12/18/12 10/7/10
f 11/42/11 17/43/17 12/45/12
f 12/27/12 17/37/17 13/24/13
f 13/20/13 9/3/9 12/18/12
f 13/24/13 17/37/17 14/26/14
f 14/19/14 16/6/16 13/20/13
f 14/44/14 17/47/17 15/46/15
f 15/12/15 16/6/16 14/19/14
f 15/46/15 17/47/17 16/48/16
f 16/35/16 17/22/17 9/38/9
