# Exported from Wings 3D 2.2.6.1
mtllib ExitSpiral.mtl
o Torus2
#45 vertices, 90 faces
v 3.8270212e-17 0.62500000 0.0000000e+0
v 0.11888206 0.53862712 0.0000000e+0
v 7.3473157e-2 0.39887288 0.0000000e+0
v -7.3473157e-2 0.39887288 0.0000000e+0
v -0.11888206 0.53862712 0.0000000e+0
v 2.9316684e-17 0.47877778 0.40174226
v 0.11888206 0.41261232 0.34622284
v 7.3473157e-2 0.30555435 0.25639054
v -7.3473157e-2 0.30555435 0.25639054
v -0.11888206 0.41261232 0.34622284
v 6.6455527e-18 0.10853011 0.61550485
v 0.11888206 9.3531619e-2 0.53044417
v 7.3473157e-2 6.9263548e-2 0.39281310
v -7.3473157e-2 6.9263548e-2 0.39281310
v -0.11888206 9.3531619e-2 0.53044417
v -1.9135106e-17 -0.31250000 0.54126588
v 0.11888206 -0.26931356 0.46646477
v 7.3473157e-2 -0.19943644 0.34543404
v -7.3473157e-2 -0.19943644 0.34543404
v -0.11888206 -0.26931356 0.46646477
v -3.5962236e-17 -0.58730789 0.21376259
v 0.11888206 -0.50614393 0.18422133
v 7.3473157e-2 -0.37481790 0.13642256
v -7.3473157e-2 -0.37481790 0.13642256
v -0.11888206 -0.50614393 0.18422133
v -3.5962236e-17 -0.58730789 -0.21376259
v 0.11888206 -0.50614393 -0.18422133
v 7.3473157e-2 -0.37481790 -0.13642256
v -7.3473157e-2 -0.37481790 -0.13642256
v -0.11888206 -0.50614393 -0.18422133
v -1.9135106e-17 -0.31250000 -0.54126588
v 0.11888206 -0.26931356 -0.46646477
v 7.3473157e-2 -0.19943644 -0.34543404
v -7.3473157e-2 -0.19943644 -0.34543404
v -0.11888206 -0.26931356 -0.46646477
v 6.6455527e-18 0.10853011 -0.61550485
v 0.11888206 9.3531619e-2 -0.53044417
v 7.3473157e-2 6.9263548e-2 -0.39281310
v -7.3473157e-2 6.9263548e-2 -0.39281310
v -0.11888206 9.3531619e-2 -0.53044417
v 2.9316684e-17 0.47877778 -0.40174226
v 0.11888206 0.41261232 -0.34622284
v 7.3473157e-2 0.30555435 -0.25639054
v -7.3473157e-2 0.30555435 -0.25639054
v -0.11888206 0.41261232 -0.34622284
vt 0.0000000e+0 1.5462585e-2
vt 0.0000000e+0 0.80303718
vt 5.5511151e-17 0.52235128
vt 4.6664293e-3 0.35223802
vt 4.6664293e-3 0.18557585
vt 2.8199502e-2 0.64245245
vt 6.3536689e-2 0.79178652
vt 6.6087138e-2 0.0000000e+0
vt 6.6087138e-2 0.18511414
vt 6.6087138e-2 0.35269973
vt 6.6087138e-2 0.53781387
vt 8.1631101e-2 0.94422167
vt 8.4061370e-2 0.67470513
vt 0.12310222 0.89476680
vt 0.12750785 0.18557585
vt 0.12750785 0.35223802
vt 0.13217428 1.5462585e-2
vt 0.13217428 0.52235128
vt 0.13217428 0.26551528
vt 0.15311139 0.53781387
vt 0.16013098 0.10498293
vt 0.17512073 0.59841544
vt 0.19564689 0.25419326
vt 0.21390758 0.40644552
vt 0.21603510 0.13716231
vt 0.23488081 1.00000000
vt 0.23488702 0.93547490
vt 0.25528260 0.35698886
vt 0.28496652 1.0798097e-4
vt 0.29396240 0.59851040
vt 0.30706971 6.0729240e-2
vt 0.31602748 0.53792174
vt 0.34660013 0.89486094
vt 0.36702868 0.39753764
vt 0.36705952 0.46201906
vt 0.38505031 0.67489353
vt 0.38809414 0.94424749
vt 0.40585391 0.79190020
vt 0.42603604 6.0670921e-2
vt 0.44086668 0.64260751
vt 0.44805142 0.0000000e+0
vt 0.46936368 0.80301196
vt 0.46936368 0.88611252
vt 0.46936368 0.55263412
vt 0.47307845 0.71937332
vt 0.47870892 0.35690668
vt 0.51728122 0.13700772
vt 0.52015060 0.40629846
vt 0.53420891 0.71937332
vt 0.53420891 0.90093278
vt 0.53420891 0.53781387
vt 0.53811601 0.25403432
vt 0.57311683 0.10466776
vt 0.59533936 0.71937332
vt 0.59905414 0.55263412
vt 0.59905414 0.88611252
vt 0.60164747 0.34829866
vt 0.60164747 0.37700016
vt 0.60164747 1.4820257e-2
vt 0.60164747 0.26519398
vt 0.60164747 0.70779376
vt 0.60164747 0.72167501
vt 0.60164747 0.84114113
vt 0.60164747 0.96060724
vt 0.60323427 0.54239696
vt 0.60536224 0.18155946
vt 0.66598839 0.72167501
vt 0.66598839 0.84114113
vt 0.66598839 0.96060724
vt 0.66598839 0.72167501
vt 0.66598839 0.84114113
vt 0.66598839 0.96060724
vt 0.66613886 0.36311891
vt 0.66613886 0.54239696
vt 0.66613886 0.72167501
vt 0.66649270 0.0000000e+0
vt 0.66649270 0.18155946
vt 0.66649270 0.36311891
vt 0.72762316 0.18155946
vt 0.72904345 0.54239696
vt 0.73032931 0.72167501
vt 0.73032931 0.84114113
vt 0.73032931 0.96060724
vt 0.73063025 0.37700016
vt 0.73063025 0.70779376
vt 0.73133793 0.34829866
vt 0.73133793 2.7755576e-17
vt 0.73133793 1.4820257e-2
vt 0.73133793 0.11946612
vt 0.73133793 0.23893224
vt 0.73133793 0.35839836
vt 0.79567885 0.0000000e+0
vt 0.79567885 0.11946612
vt 0.79567885 0.23893224
vt 0.79567885 0.35839836
vt 0.79567885 2.7755576e-17
vt 0.79567885 0.11946612
vt 0.79567885 0.23893224
vt 0.86001977 0.0000000e+0
vt 0.86001977 0.11946612
vt 0.86001977 0.23893224
vn -0.10309942 0.99332920 -5.1648895e-2
vn 0.97913748 0.19681234 5.0544067e-2
vn 0.60409003 -0.79691608 9.7574872e-17
vn -0.60409003 -0.79691608 2.6611329e-17
vn -0.95493920 0.29680150 7.0260647e-17
vn 0.10309942 0.72773505 0.67806505
vn 0.95493920 0.22736314 0.19078033
vn 0.60409003 -0.61047314 -0.51224778
vn -0.60409003 -0.61047314 -0.51224778
vn -0.97913748 0.18325610 8.7789532e-2
vn -0.14342665 0.10063958 0.98453058
vn 0.95493920 5.1539040e-2 0.29229242
vn 0.60409003 -0.13838303 -0.78480914
vn -0.60409003 -0.13838303 -0.78480914
vn -0.89975796 0.14464934 0.41171858
vn 0.14342665 -0.43129956 0.89073536
vn 0.89975796 -0.27674197 0.33741592
vn 0.60409003 0.39845804 -0.69014957
vn -0.60409003 0.39845804 -0.69014957
vn -0.95493920 -0.14840075 0.25703764
vn -3.5764202e-17 -0.93969262 0.34202014
vn 0.98718105 -0.15720194 2.7588544e-2
vn 0.71116290 0.66969237 -0.21391461
vn -0.60409003 0.74885616 -0.27256135
vn -0.95493920 -0.27890218 0.10151209
vn -3.5764202e-17 -0.93969262 -0.34202014
vn 0.95493920 -0.27890218 -0.10151209
vn 0.48046742 0.84979757 0.21678366
vn -0.48046742 0.79032856 0.38017343
vn -0.95493920 -0.27890218 -0.10151209
vn -3.5764202e-17 -0.50000000 -0.86602540
vn 0.95493920 -0.14840075 -0.25703764
vn 0.60409003 0.39845804 0.69014957
vn -0.71116290 0.37551246 0.59433805
vn -0.98718105 -0.10269010 -0.12218151
vn -0.14342665 0.24215903 -0.95957689
vn 0.95493920 5.1539040e-2 -0.29229242
vn 0.60409003 -0.13838303 0.78480914
vn -0.60409003 -0.13838303 0.78480914
vn -0.89975796 4.8901272e-3 -0.43636190
vn 0.14342665 0.70993845 -0.68950431
vn 0.89975796 0.37545543 -0.22241593
vn 0.60409003 -0.61047314 0.51224778
vn -0.60409003 -0.61047314 0.51224778
vn -0.95493920 0.22736314 -0.19078033
g Torus2
usemtl Torus2_auv
s 1
f 1/77/1 6/76/6 2/79/2
f 1/77/1 10/59/10 6/76/6
f 1/77/1 42/86/42 41/78/41
f 1/77/1 45/57/45 5/66/5
f 2/79/2 6/76/6 7/88/7
f 2/35/2 8/28/8 3/34/3
f 2/79/2 42/86/42 1/77/1
f 2/35/2 43/46/43 42/48/42
f 3/97/3 8/96/8 4/100/4
f 3/34/3 43/46/43 2/35/2
f 4/100/4 8/96/8 9/99/9
f 4/27/4 10/37/10 5/26/5
f 4/100/4 43/98/43 3/97/3
f 4/27/4 45/12/45 44/14/44
f 5/66/5 10/59/10 1/77/1
f 5/26/5 45/12/45 4/27/4
f 6/75/6 12/80/12 7/85/7
f 6/75/6 15/65/15 11/74/11
f 7/24/7 8/28/8 2/35/2
f 7/24/7 12/19/12 8/28/8
f 8/28/8 12/19/12 13/23/13
f 8/64/8 14/68/14 9/69/9
f 9/33/9 10/37/10 4/27/4
f 9/33/9 14/38/14 10/37/10
f 10/37/10 14/38/14 15/42/15
f 10/61/10 15/65/15 6/75/6
f 11/74/11 12/80/12 6/75/6
f 11/74/11 16/73/16 12/80/12
f 11/74/11 20/58/20 16/73/16
f 12/80/12 16/73/16 17/84/17
f 12/19/12 18/25/18 13/23/13
f 13/63/13 14/68/14 8/64/8
f 13/63/13 18/62/18 14/68/14
f 14/68/14 18/62/18 19/67/19
f 14/38/14 20/40/20 15/42/15
f 15/65/15 20/58/20 11/74/11
f 16/8/16 21/9/21 17/1/17
f 17/21/17 18/25/18 12/19/12
f 17/1/17 21/9/21 22/5/22
f 17/21/17 22/29/22 18/25/18
f 18/25/18 22/29/22 23/31/23
f 18/92/18 24/89/24 19/87/19
f 19/36/19 20/40/20 14/38/14
f 19/36/19 24/30/24 20/40/20
f 20/17/20 21/9/21 16/8/16
f 20/40/20 24/30/24 25/32/25
f 21/9/21 27/4/27 22/5/22
f 21/9/21 30/16/30 26/10/26
f 22/29/22 27/41/27 23/31/23
f 23/93/23 24/89/24 18/92/18
f 23/31/23 27/41/27 28/39/28
f 23/93/23 28/94/28 24/89/24
f 24/89/24 28/94/28 29/90/29
f 24/30/24 30/20/30 25/32/25
f 25/15/25 21/9/21 20/17/20
f 25/15/25 30/16/30 21/9/21
f 26/10/26 27/4/27 21/9/21
f 26/10/26 31/11/31 27/4/27
f 27/4/27 31/11/31 32/3/32
f 27/41/27 33/47/33 28/39/28
f 28/94/28 33/95/33 29/90/29
f 29/22/29 30/20/30 24/30/24
f 29/90/29 33/95/33 34/91/34
f 29/22/29 34/13/34 30/20/30
f 30/16/30 31/11/31 26/10/26
f 30/20/30 34/13/34 35/6/35
f 31/51/31 37/45/37 32/44/32
f 31/51/31 40/54/40 36/49/36
f 32/53/32 33/47/33 27/41/27
f 32/53/32 37/60/37 33/47/33
f 33/47/33 37/60/37 38/52/38
f 33/81/33 39/71/39 34/70/34
f 34/13/34 39/7/39 35/6/35
f 35/18/35 31/11/31 30/16/30
f 35/6/35 39/7/39 40/2/40
f 35/55/35 40/54/40 31/51/31
f 36/49/36 37/45/37 31/51/31
f 36/49/36 41/50/41 37/45/37
f 36/49/36 45/56/45 41/50/41
f 37/45/37 41/50/41 42/43/42
f 37/60/37 43/46/43 38/52/38
f 38/82/38 39/71/39 33/81/33
f 38/82/38 43/83/43 39/71/39
f 39/71/39 43/83/43 44/72/44
f 39/7/39 45/12/45 40/2/40
f 40/54/40 45/56/45 36/49/36
f 41/78/41 45/57/45 1/77/1
f 42/48/42 43/46/43 37/60/37
f 44/101/44 43/98/43 4/100/4
f 44/14/44 45/12/45 39/7/39
