# Blender 3.4.1
# www.blender.org
mtllib Hook.mtl
o Cylinder
v -0.000000 0.125000 -0.033333
v -0.000000 0.444122 -0.012177
v 0.028868 0.125000 -0.016667
v 0.033077 0.442894 0.006411
v 0.028868 0.125000 0.016667
v 0.033077 0.440439 0.043589
v 0.000000 0.125000 0.033333
v -0.000000 0.439211 0.062177
v -0.028868 0.125000 0.016667
v -0.033077 0.440439 0.043589
v -0.028868 0.125000 -0.016667
v -0.033077 0.442894 0.006411
v 0.019546 0.637682 0.140188
v -0.000000 0.643461 0.131805
v 0.019546 0.626125 0.156953
v -0.000000 0.620347 0.165336
v -0.019546 0.626125 0.156953
v -0.019546 0.637682 0.140188
v 0.009888 0.681058 0.283290
v 0.000566 0.685931 0.282063
v 0.009888 0.671311 0.285746
v 0.000566 0.666438 0.286973
v -0.008756 0.671311 0.285746
v -0.008756 0.681058 0.283290
v 0.005796 0.655796 0.366421
v 0.002548 0.657671 0.366421
v 0.005796 0.652046 0.366421
v 0.002548 0.650171 0.366421
v -0.000700 0.652046 0.366421
v -0.000700 0.655796 0.366421
v 0.014601 0.097608 -0.025289
v 0.019019 0.443784 -0.007066
v -0.000000 0.258833 -0.036611
v 0.034522 0.258680 -0.016743
v 0.029202 0.097608 0.000000
v 0.038039 0.441667 0.025000
v 0.034522 0.258373 0.022993
v 0.014601 0.097608 0.025289
v 0.019019 0.439549 0.057066
v -0.000000 0.258219 0.042861
v -0.014601 0.097608 0.025289
v -0.019019 0.439549 0.057066
v -0.034522 0.258373 0.022993
v -0.029202 0.097608 -0.000000
v -0.038039 0.441667 0.025000
v -0.034522 0.258680 -0.016743
v -0.014601 0.097608 -0.025289
v -0.019019 0.443784 -0.007066
v 0.011239 0.641871 0.134110
v 0.022478 0.631904 0.148570
v 0.011239 0.621936 0.163030
v -0.011239 0.621936 0.163030
v -0.022478 0.631904 0.148570
v -0.011239 0.641872 0.134110
v -0.000000 0.572722 0.050054
v 0.026875 0.569084 0.064000
v 0.026875 0.561808 0.091892
v -0.000000 0.558170 0.105838
v -0.026875 0.569084 0.064000
v -0.026875 0.561808 0.091892
v 0.005926 0.684591 0.282400
v 0.011286 0.676185 0.284518
v 0.005926 0.667778 0.286636
v -0.004794 0.667778 0.286636
v -0.010154 0.676185 0.284518
v -0.004794 0.684591 0.282400
v -0.013686 0.672591 0.215706
v 0.000071 0.678638 0.211742
v 0.000071 0.654450 0.227596
v -0.013686 0.660497 0.223633
v 0.013828 0.672591 0.215706
v 0.013828 0.660497 0.223632
v 0.004253 0.653812 0.371900
v 0.005771 0.651182 0.371900
v 0.004253 0.648552 0.371900
v 0.001216 0.648552 0.371900
v -0.000303 0.651182 0.371900
v 0.001216 0.653812 0.371900
v 0.001662 0.659733 0.337702
v -0.003961 0.662916 0.337548
v 0.007285 0.669281 0.337241
v 0.007285 0.662916 0.337548
v -0.003961 0.669281 0.337241
v 0.001662 0.672464 0.337088
v 0.019747 0.256090 -0.030969
v 0.039494 0.255826 0.003125
v 0.019747 0.255561 0.037219
v -0.019747 0.255561 0.037219
v 0.015453 0.571722 0.053889
v -0.039494 0.255826 0.003125
v -0.019747 0.256090 -0.030969
v 0.000000 0.032828 0.000000
v -0.007840 0.676975 0.212832
v 0.015453 0.559171 0.102003
v -0.015453 0.571722 0.053889
v -0.015453 0.559171 0.102003
v 0.030907 0.565446 0.077946
v -0.030907 0.565446 0.077946
v -0.001521 0.660393 0.338200
v -0.007840 0.656113 0.226506
v 0.015891 0.666544 0.219669
v -0.015750 0.666544 0.219669
v 0.007981 0.656113 0.226506
v 0.007981 0.676975 0.212832
v 0.003174 0.644704 0.384856
v 0.008083 0.665828 0.337935
v -0.004723 0.665828 0.337935
v 0.004882 0.660393 0.338200
v 0.004882 0.671264 0.337670
v -0.001521 0.671264 0.337670
vn 0.3434 -0.0348 -0.9385
vn 0.2744 0.1241 -0.9536
vn 0.6868 0.0952 -0.7206
vn 0.6423 -0.0388 -0.7655
vn 0.9813 -0.0517 -0.1853
vn 0.9685 0.0375 -0.2462
vn 0.9678 -0.0213 0.2507
vn 0.9797 -0.0598 0.1913
vn 0.6615 -0.0713 0.7465
vn 0.6959 -0.0748 0.7143
vn 0.2602 -0.1025 0.9601
vn 0.3116 -0.0753 0.9472
vn -0.3116 -0.0753 0.9472
vn -0.2602 -0.1025 0.9601
vn -0.6959 -0.0748 0.7143
vn -0.6615 -0.0713 0.7465
vn 0.6643 0.3368 -0.6673
vn 0.2430 0.4226 -0.8731
vn 0.2183 0.7391 -0.6372
vn 0.6179 0.6102 -0.4957
vn -0.9797 -0.0598 0.1913
vn -0.9678 -0.0213 0.2507
vn -0.9685 0.0375 -0.2462
vn -0.9813 -0.0517 -0.1853
vn -0.6423 -0.0388 -0.7655
vn -0.6868 0.0952 -0.7206
vn -0.2744 0.1241 -0.9536
vn -0.3434 -0.0348 -0.9385
vn -0.0000 -0.3401 -0.9404
vn 0.8144 -0.3401 -0.4702
vn 0.8144 -0.3401 0.4702
vn -0.0000 -0.3401 0.9404
vn -0.8144 -0.3401 0.4702
vn -0.8144 -0.3401 -0.4702
vn -0.2210 0.8935 -0.3909
vn -0.6237 0.7252 -0.2917
vn -0.6394 0.7671 -0.0528
vn -0.2296 0.9684 -0.0974
vn 0.2489 -0.3339 0.9091
vn 0.6770 -0.2415 0.6952
vn 0.6446 -0.5082 0.5712
vn 0.2273 -0.6721 0.7047
vn -0.2430 0.4226 -0.8731
vn -0.6643 0.3368 -0.6673
vn -0.6179 0.6102 -0.4957
vn -0.2183 0.7391 -0.6372
vn -0.6770 -0.2415 0.6952
vn -0.2489 -0.3339 0.9091
vn -0.2273 -0.6721 0.7047
vn -0.6446 -0.5082 0.5712
vn 0.9645 -0.0543 0.2585
vn 0.9576 0.1577 -0.2411
vn 0.9407 0.2939 -0.1694
vn 0.9607 -0.1357 0.2424
vn -0.9576 0.1577 -0.2411
vn -0.9645 -0.0543 0.2585
vn -0.9607 -0.1357 0.2424
vn -0.9407 0.2939 -0.1694
vn -0.6785 -0.7322 -0.0588
vn -0.2284 -0.9657 -0.1233
vn -0.2082 -0.9289 -0.3064
vn -0.6972 -0.6927 -0.1846
vn -0.6451 -0.6562 0.3915
vn -0.2281 -0.8530 0.4695
vn -0.2364 -0.9518 0.1954
vn -0.6585 -0.7314 0.1775
vn 0.9597 -0.2074 0.1896
vn 0.9439 0.3220 -0.0735
vn 0.9505 0.3103 0.0189
vn 0.9613 -0.2545 0.1057
vn -0.9436 0.3231 -0.0723
vn -0.9597 -0.2061 0.1909
vn -0.9614 -0.2479 0.1196
vn -0.9482 0.3159 0.0322
vn 0.2281 -0.8532 0.4691
vn 0.6449 -0.6570 0.3905
vn 0.6573 -0.7348 0.1674
vn 0.2362 -0.9526 0.1916
vn 0.6240 0.7246 -0.2926
vn 0.2211 0.8933 -0.3913
vn 0.2299 0.9680 -0.1006
vn 0.6411 0.7650 -0.0617
vn 0.7973 0.4603 0.3904
vn -0.0000 0.8179 0.5753
vn -0.7799 0.4503 0.4348
vn -0.8659 -0.4999 -0.0171
vn -0.0000 -0.9587 -0.2843
vn 0.8635 -0.4986 -0.0758
vn 0.9626 -0.2710 0.0048
vn 0.9547 0.2769 0.1087
vn 0.9664 0.2082 0.1509
vn 0.9682 -0.2467 -0.0416
vn -0.9485 0.2802 0.1481
vn -0.9638 -0.2623 0.0469
vn -0.9712 -0.2372 0.0224
vn -0.9577 0.2010 0.2060
vn 0.2274 -0.9647 -0.1330
vn 0.6754 -0.7322 -0.0880
vn 0.6939 -0.6841 -0.2248
vn 0.2058 -0.9254 -0.3182
vn 0.6345 0.7484 0.1932
vn 0.2538 0.9399 0.2282
vn 0.3399 0.8393 0.4244
vn 0.5643 0.7344 0.3771
vn -0.2532 0.9377 0.2378
vn -0.6280 0.7471 0.2181
vn -0.5521 0.7276 0.4072
vn -0.3393 0.8310 0.4409
vt 1.000000 0.500000
vt -0.000000 0.500000
vt 0.750000 0.490000
vt 1.000000 1.000000
vt -0.000000 1.000000
vt 0.833333 0.500000
vt 0.957846 0.370000
vt 0.833333 0.916667
vt 0.666667 0.500000
vt 0.957846 0.130000
vt 0.666667 0.916667
vt 0.500000 0.500000
vt 0.750000 0.010000
vt 0.500000 0.916667
vt 0.333333 0.500000
vt 0.542154 0.130000
vt 0.333333 0.916667
vt 0.166667 0.500000
vt 0.542154 0.370000
vt 0.166667 0.916667
vt 0.833333 1.000000
vt -0.000000 1.000000
vt 1.000000 1.000000
vt 0.666667 1.000000
vt 0.500000 1.000000
vt 0.333333 1.000000
vt 0.166667 1.000000
vt 0.833333 1.000000
vt 1.000000 1.000000
vt -0.000000 1.000000
vt 0.666667 1.000000
vt 0.500000 1.000000
vt 0.333333 1.000000
vt 0.166667 1.000000
vt 0.457846 0.370000
vt 0.833333 1.000000
vt 0.250000 0.490000
vt 1.000000 1.000000
vt -0.000000 1.000000
vt 0.457846 0.130000
vt 0.666667 1.000000
vt 0.250000 0.010000
vt 0.500000 1.000000
vt 0.042154 0.130000
vt 0.333333 1.000000
vt 0.042154 0.370000
vt 0.166667 1.000000
vt 0.916667 0.500000
vt 0.853923 0.430000
vt 0.916667 0.923611
vt 1.000000 0.750000
vt -0.000000 0.750000
vt 0.833333 0.739583
vt 0.750000 0.500000
vt 0.957846 0.250000
vt 0.750000 0.916667
vt 0.666667 0.739583
vt 0.583333 0.500000
vt 0.853923 0.070000
vt 0.583333 0.916667
vt 0.500000 0.739583
vt 0.416667 0.500000
vt 0.646077 0.070000
vt 0.416667 0.916667
vt 0.333333 0.739583
vt 0.250000 0.500000
vt 0.542154 0.250000
vt 0.250000 0.916667
vt 0.166667 0.739583
vt 0.083333 0.500000
vt 0.646077 0.430000
vt 0.083333 0.923611
vt 0.916667 1.000000
vt 0.750000 1.000000
vt 0.583333 1.000000
vt 0.416667 1.000000
vt 0.250000 1.000000
vt 0.083333 1.000000
vt 1.000000 1.000000
vt -0.000000 1.000000
vt 0.833333 0.989583
vt 0.666667 0.989583
vt 0.500000 0.989583
vt 0.166667 0.989583
vt 0.333333 0.989583
vt 0.916667 1.000000
vt 0.750000 1.000000
vt 0.583333 1.000000
vt 0.416667 1.000000
vt 0.250000 1.000000
vt 0.083333 1.000000
vt 0.166667 1.000000
vt -0.000000 1.000000
vt 1.000000 1.000000
vt 0.500000 1.000000
vt 0.333333 1.000000
vt 0.833333 1.000000
vt 0.666667 1.000000
vt 0.353923 0.430000
vt 0.916667 1.000000
vt 0.457846 0.250000
vt 0.750000 1.000000
vt 0.353923 0.070000
vt 0.583333 1.000000
vt 0.416667 1.000000
vt 0.146077 0.070000
vt 0.042154 0.250000
vt 0.250000 1.000000
vt 0.146077 0.430000
vt 0.083333 1.000000
vt 0.500000 1.000000
vt 0.333333 1.000000
vt 0.833333 1.000000
vt 0.666667 1.000000
vt 0.166667 1.000000
vt 1.000000 1.000000
vt -0.000000 1.000000
vt 0.916667 0.741320
vt 0.750000 0.739583
vt 0.583333 0.739583
vt 0.416667 0.739583
vt 0.916667 0.991320
vt 0.250000 0.739583
vt 0.083333 0.741320
vt 0.750000 0.250000
vt 0.083333 1.000000
vt 0.583333 0.989583
vt 0.083333 0.991320
vt 0.416667 0.989583
vt 0.750000 0.989583
vt 0.250000 0.989583
vt 0.416667 1.000000
vt 0.416667 1.000000
vt 0.750000 1.000000
vt 0.250000 1.000000
vt 0.583333 1.000000
vt 0.916667 1.000000
vt 0.250000 0.250000
vt 0.750000 1.000000
vt 0.250000 1.000000
vt 0.583333 1.000000
vt 0.916667 1.000000
vt 0.083333 1.000000
s 0
f 1/1/1 33/51/1 85/118/1 31/48/1
f 33/51/2 2/4/2 32/50/2 85/118/2
f 85/118/3 32/50/3 4/8/3 34/53/3
f 31/48/4 85/118/4 34/53/4 3/6/4
f 3/6/5 34/53/5 86/119/5 35/54/5
f 34/53/6 4/8/6 36/56/6 86/119/6
f 86/119/7 36/56/7 6/11/7 37/57/7
f 35/54/8 86/119/8 37/57/8 5/9/8
f 5/9/9 37/57/9 87/120/9 38/58/9
f 37/57/10 6/11/10 39/60/10 87/120/10
f 87/120/11 39/60/11 8/14/11 40/61/11
f 38/58/12 87/120/12 40/61/12 7/12/12
f 7/12/13 40/61/13 88/121/13 41/62/13
f 40/61/14 8/14/14 42/64/14 88/121/14
f 88/121/15 42/64/15 10/17/15 43/65/15
f 41/62/16 88/121/16 43/65/16 9/15/16
f 4/8/17 32/50/17 89/122/17 56/81/17
f 32/50/18 2/4/18 55/79/18 89/122/18
f 89/122/19 55/79/19 14/23/19 49/73/19
f 56/81/20 89/122/20 49/73/20 13/21/20
f 9/15/21 43/65/21 90/123/21 44/66/21
f 43/65/22 10/17/22 45/68/22 90/123/22
f 90/123/23 45/68/23 12/20/23 46/69/23
f 44/66/24 90/123/24 46/69/24 11/18/24
f 11/18/25 46/69/25 91/124/25 47/70/25
f 46/69/26 12/20/26 48/72/26 91/124/26
f 91/124/27 48/72/27 2/5/27 33/52/27
f 47/70/28 91/124/28 33/52/28 1/2/28
f 1/3/29 31/49/29 92/125/29 47/71/29
f 3/7/30 35/55/30 92/125/30 31/49/30
f 5/10/31 38/59/31 92/125/31 35/55/31
f 7/13/32 41/63/32 92/125/32 38/59/32
f 9/16/33 44/67/33 92/125/33 41/63/33
f 11/19/34 47/71/34 92/125/34 44/67/34
f 14/22/35 54/78/35 93/126/35 68/93/35
f 54/78/36 18/27/36 67/92/36 93/126/36
f 93/126/37 67/92/37 24/34/37 66/91/37
f 68/93/38 93/126/38 66/91/38 20/30/38
f 8/14/39 39/60/39 94/127/39 58/83/39
f 39/60/40 6/11/40 57/82/40 94/127/40
f 94/127/41 57/82/41 15/24/41 51/75/41
f 58/83/42 94/127/42 51/75/42 16/25/42
f 2/5/43 48/72/43 95/128/43 55/80/43
f 48/72/44 12/20/44 59/84/44 95/128/44
f 95/128/45 59/84/45 18/27/45 54/78/45
f 55/80/46 95/128/46 54/78/46 14/22/46
f 10/17/47 42/64/47 96/129/47 60/85/47
f 42/64/48 8/14/48 58/83/48 96/129/48
f 96/129/49 58/83/49 16/25/49 52/76/49
f 60/85/50 96/129/50 52/76/50 17/26/50
f 6/11/51 36/56/51 97/130/51 57/82/51
f 36/56/52 4/8/52 56/81/52 97/130/52
f 97/130/53 56/81/53 13/21/53 50/74/53
f 57/82/54 97/130/54 50/74/54 15/24/54
f 12/20/55 45/68/55 98/131/55 59/84/55
f 45/68/56 10/17/56 60/85/56 98/131/56
f 98/131/57 60/85/57 17/26/57 53/77/57
f 59/84/58 98/131/58 53/77/58 18/27/58
f 23/33/59 64/89/59 99/132/59 80/112/59
f 64/89/60 22/32/60 79/111/60 99/132/60
f 99/132/61 79/111/61 28/43/61 76/105/61
f 80/112/62 99/132/62 76/105/62 29/45/62
f 17/26/63 52/76/63 100/133/63 70/96/63
f 52/76/64 16/25/64 69/95/64 100/133/64
f 100/133/65 69/95/65 22/32/65 64/89/65
f 70/96/66 100/133/66 64/89/66 23/33/66
f 15/24/67 50/74/67 101/134/67 72/98/67
f 50/74/68 13/21/68 71/97/68 101/134/68
f 101/134/69 71/97/69 19/28/69 62/87/69
f 72/98/70 101/134/70 62/87/70 21/31/70
f 18/27/71 53/77/71 102/135/71 67/92/71
f 53/77/72 17/26/72 70/96/72 102/135/72
f 102/135/73 70/96/73 23/33/73 65/90/73
f 67/92/74 102/135/74 65/90/74 24/34/74
f 16/25/75 51/75/75 103/136/75 69/95/75
f 51/75/76 15/24/76 72/98/76 103/136/76
f 103/136/77 72/98/77 21/31/77 63/88/77
f 69/95/78 103/136/78 63/88/78 22/32/78
f 13/21/79 49/73/79 104/137/79 71/97/79
f 49/73/80 14/23/80 68/94/80 104/137/80
f 104/137/81 68/94/81 20/29/81 61/86/81
f 71/97/82 104/137/82 61/86/82 19/28/82
f 25/35/83 73/99/83 105/138/83 74/101/83
f 26/37/84 78/109/84 105/138/84 73/99/84
f 30/46/85 77/107/85 105/138/85 78/109/85
f 29/44/86 76/106/86 105/138/86 77/107/86
f 28/42/87 75/103/87 105/138/87 76/106/87
f 27/40/88 74/101/88 105/138/88 75/103/88
f 21/31/89 62/87/89 106/139/89 82/114/89
f 62/87/90 19/28/90 81/113/90 106/139/90
f 106/139/91 81/113/91 25/36/91 74/102/91
f 82/114/92 106/139/92 74/102/92 27/41/92
f 24/34/93 65/90/93 107/140/93 83/115/93
f 65/90/94 23/33/94 80/112/94 107/140/94
f 107/140/95 80/112/95 29/45/95 77/108/95
f 83/115/96 107/140/96 77/108/96 30/47/96
f 22/32/97 63/88/97 108/141/97 79/111/97
f 63/88/98 21/31/98 82/114/98 108/141/98
f 108/141/99 82/114/99 27/41/99 75/104/99
f 79/111/100 108/141/100 75/104/100 28/43/100
f 19/28/101 61/86/101 109/142/101 81/113/101
f 61/86/102 20/29/102 84/116/102 109/142/102
f 109/142/103 84/116/103 26/38/103 73/100/103
f 81/113/104 109/142/104 73/100/104 25/36/104
f 20/30/105 66/91/105 110/143/105 84/117/105
f 66/91/106 24/34/106 83/115/106 110/143/106
f 110/143/107 83/115/107 30/47/107 78/110/107
f 84/117/108 110/143/108 78/110/108 26/39/108
