# Blender 3.4.1
# www.blender.org
mtllib Relic.mtl
o Cone
v 0.000000 -0.375000 0.000000
v 0.000000 0.375000 -0.125000
v 0.088388 0.375000 -0.088388
v 0.125000 0.375000 0.000000
v 0.088388 0.375000 0.088388
v 0.000000 0.375000 0.125000
v -0.088388 0.375000 0.088388
v -0.125000 0.375000 0.000000
v -0.088388 0.375000 -0.088388
vn 0.3782 -0.1522 -0.9131
vn 0.9131 -0.1522 -0.3782
vn 0.9131 -0.1522 0.3782
vn 0.3782 -0.1522 0.9131
vn -0.3782 -0.1522 0.9131
vn -0.9131 -0.1522 0.3782
vn -0.0000 1.0000 -0.0000
vn -0.9131 -0.1522 -0.3782
vn -0.3782 -0.1522 -0.9131
vt 0.750000 0.250000
vt 0.250000 0.490000
vt 0.750000 0.490000
vt 0.919706 0.419706
vt 0.419706 0.419706
vt 0.990000 0.250000
vt 0.490000 0.250000
vt 0.919706 0.080294
vt 0.419706 0.080294
vt 0.750000 0.010000
vt 0.250000 0.010000
vt 0.580294 0.080294
vt 0.080294 0.080294
vt 0.010000 0.250000
vt 0.510000 0.250000
vt 0.080294 0.419706
vt 0.580294 0.419706
s 0
f 1/1/1 2/3/1 3/4/1
f 1/1/2 3/4/2 4/6/2
f 1/1/3 4/6/3 5/8/3
f 1/1/4 5/8/4 6/10/4
f 1/1/5 6/10/5 7/12/5
f 1/1/6 7/12/6 8/15/6
f 3/5/7 2/2/7 9/16/7 8/14/7 7/13/7 6/11/7 5/9/7 4/7/7
f 1/1/8 8/15/8 9/17/8
f 1/1/9 9/17/9 2/3/9
o Torus
v 0.000000 0.375000 0.000000
v 0.035355 0.389645 0.000000
v 0.050000 0.425000 0.000000
v 0.035355 0.460355 0.000000
v 0.000000 0.475000 0.000000
v -0.035355 0.460355 0.000000
v -0.050000 0.425000 0.000000
v -0.035355 0.389645 0.000000
v 0.000000 0.433579 -0.141421
v 0.035355 0.443934 -0.131066
v 0.050000 0.468934 -0.106066
v 0.035355 0.493934 -0.081066
v 0.000000 0.504289 -0.070711
v -0.035355 0.493934 -0.081066
v -0.050000 0.468934 -0.106066
v -0.035355 0.443934 -0.131066
v 0.000000 0.575000 -0.200000
v 0.035355 0.575000 -0.185355
v 0.050000 0.575000 -0.150000
v 0.035355 0.575000 -0.114645
v 0.000000 0.575000 -0.100000
v -0.035355 0.575000 -0.114645
v -0.050000 0.575000 -0.150000
v -0.035355 0.575000 -0.185355
v -0.000000 0.716421 -0.141421
v 0.035355 0.706066 -0.131066
v 0.050000 0.681066 -0.106066
v 0.035355 0.656066 -0.081066
v -0.000000 0.645711 -0.070711
v -0.035355 0.656066 -0.081066
v -0.050000 0.681066 -0.106066
v -0.035355 0.706066 -0.131066
v -0.000000 0.775000 -0.000000
v 0.035355 0.760355 -0.000000
v 0.050000 0.725000 -0.000000
v 0.035355 0.689645 -0.000000
v -0.000000 0.675000 -0.000000
v -0.035355 0.689645 -0.000000
v -0.050000 0.725000 -0.000000
v -0.035355 0.760355 -0.000000
v -0.000000 0.716421 0.141421
v 0.035355 0.706066 0.131066
v 0.050000 0.681066 0.106066
v 0.035355 0.656066 0.081066
v -0.000000 0.645711 0.070711
v -0.035355 0.656066 0.081066
v -0.050000 0.681066 0.106066
v -0.035355 0.706066 0.131066
v 0.000000 0.575000 0.200000
v 0.035355 0.575000 0.185355
v 0.050000 0.575000 0.150000
v 0.035355 0.575000 0.114645
v 0.000000 0.575000 0.100000
v -0.035355 0.575000 0.114645
v -0.050000 0.575000 0.150000
v -0.035355 0.575000 0.185355
v 0.000000 0.433579 0.141421
v 0.035355 0.443934 0.131066
v 0.050000 0.468934 0.106066
v 0.035355 0.493934 0.081066
v 0.000000 0.504289 0.070711
v -0.035355 0.493934 0.081066
v -0.050000 0.468934 0.106066
v -0.035355 0.443934 0.131066
vn 0.3574 -0.8629 -0.3574
vn 0.9125 -0.3780 -0.1566
vn 0.9125 0.3780 0.1566
vn 0.3574 0.8629 0.3574
vn -0.3574 0.8629 0.3574
vn -0.9125 0.3780 0.1566
vn -0.9125 -0.3780 -0.1566
vn -0.3574 -0.8629 -0.3574
vn 0.3574 -0.3574 -0.8629
vn 0.9125 -0.1566 -0.3780
vn 0.9125 0.1566 0.3780
vn 0.3574 0.3574 0.8629
vn -0.3574 0.3574 0.8629
vn -0.9125 0.1566 0.3780
vn -0.9125 -0.1566 -0.3780
vn -0.3574 -0.3574 -0.8629
vn 0.3574 0.3574 -0.8629
vn 0.9125 0.1566 -0.3780
vn 0.9125 -0.1566 0.3780
vn 0.3574 -0.3574 0.8629
vn -0.3574 -0.3574 0.8629
vn -0.9125 -0.1566 0.3780
vn -0.9125 0.1566 -0.3780
vn -0.3574 0.3574 -0.8629
vn 0.3574 0.8629 -0.3574
vn 0.9125 0.3780 -0.1566
vn 0.9125 -0.3780 0.1566
vn 0.3574 -0.8629 0.3574
vn -0.3574 -0.8629 0.3574
vn -0.9125 -0.3780 0.1566
vn -0.9125 0.3780 -0.1566
vn -0.3574 0.8629 -0.3574
vt 0.500000 0.500000
vt 0.500000 0.625000
vt 0.500000 0.750000
vt 0.500000 0.875000
vt 0.500000 1.000000
vt 0.500000 0.000000
vt 0.500000 0.125000
vt 0.500000 0.250000
vt 0.500000 0.375000
vt 0.625000 0.500000
vt 0.625000 0.625000
vt 0.625000 0.750000
vt 0.625000 0.875000
vt 0.625000 1.000000
vt 0.625000 0.000000
vt 0.625000 0.125000
vt 0.625000 0.250000
vt 0.625000 0.375000
vt 0.750000 0.500000
vt 0.750000 0.625000
vt 0.750000 0.750000
vt 0.750000 0.875000
vt 0.750000 1.000000
vt 0.750000 0.000000
vt 0.750000 0.125000
vt 0.750000 0.250000
vt 0.750000 0.375000
vt 0.875000 0.500000
vt 0.875000 0.625000
vt 0.875000 0.750000
vt 0.875000 0.875000
vt 0.875000 1.000000
vt 0.875000 0.000000
vt 0.875000 0.125000
vt 0.875000 0.250000
vt 0.875000 0.375000
vt 1.000000 0.500000
vt 0.000000 0.500000
vt 1.000000 0.625000
vt 0.000000 0.625000
vt 1.000000 0.750000
vt 0.000000 0.750000
vt 1.000000 0.875000
vt 0.000000 0.875000
vt 1.000000 1.000000
vt 1.000000 0.000000
vt 0.000000 1.000000
vt 0.000000 0.000000
vt 1.000000 0.125000
vt 0.000000 0.125000
vt 1.000000 0.250000
vt 0.000000 0.250000
vt 1.000000 0.375000
vt 0.000000 0.375000
vt 0.125000 0.500000
vt 0.125000 0.625000
vt 0.125000 0.750000
vt 0.125000 0.875000
vt 0.125000 1.000000
vt 0.125000 0.000000
vt 0.125000 0.125000
vt 0.125000 0.250000
vt 0.125000 0.375000
vt 0.250000 0.500000
vt 0.250000 0.625000
vt 0.250000 0.750000
vt 0.250000 0.875000
vt 0.250000 1.000000
vt 0.250000 0.000000
vt 0.250000 0.125000
vt 0.250000 0.250000
vt 0.250000 0.375000
vt 0.375000 0.500000
vt 0.375000 0.625000
vt 0.375000 0.750000
vt 0.375000 0.875000
vt 0.375000 1.000000
vt 0.375000 0.000000
vt 0.375000 0.125000
vt 0.375000 0.250000
vt 0.375000 0.375000
s 0
f 10/18/10 18/27/10 19/28/10 11/19/10
f 11/19/11 19/28/11 20/29/11 12/20/11
f 12/20/12 20/29/12 21/30/12 13/21/12
f 13/21/13 21/30/13 22/31/13 14/22/13
f 14/23/14 22/32/14 23/33/14 15/24/14
f 15/24/15 23/33/15 24/34/15 16/25/15
f 16/25/16 24/34/16 25/35/16 17/26/16
f 17/26/17 25/35/17 18/27/17 10/18/17
f 18/27/18 26/36/18 27/37/18 19/28/18
f 19/28/19 27/37/19 28/38/19 20/29/19
f 20/29/20 28/38/20 29/39/20 21/30/20
f 21/30/21 29/39/21 30/40/21 22/31/21
f 22/32/22 30/41/22 31/42/22 23/33/22
f 23/33/23 31/42/23 32/43/23 24/34/23
f 24/34/24 32/43/24 33/44/24 25/35/24
f 25/35/25 33/44/25 26/36/25 18/27/25
f 26/36/26 34/45/26 35/46/26 27/37/26
f 27/37/27 35/46/27 36/47/27 28/38/27
f 28/38/28 36/47/28 37/48/28 29/39/28
f 29/39/29 37/48/29 38/49/29 30/40/29
f 30/41/30 38/50/30 39/51/30 31/42/30
f 31/42/31 39/51/31 40/52/31 32/43/31
f 32/43/32 40/52/32 41/53/32 33/44/32
f 33/44/33 41/53/33 34/45/33 26/36/33
f 34/45/34 42/54/34 43/56/34 35/46/34
f 35/46/35 43/56/35 44/58/35 36/47/35
f 36/47/36 44/58/36 45/60/36 37/48/36
f 37/48/37 45/60/37 46/62/37 38/49/37
f 38/50/38 46/63/38 47/66/38 39/51/38
f 39/51/39 47/66/39 48/68/39 40/52/39
f 40/52/40 48/68/40 49/70/40 41/53/40
f 41/53/41 49/70/41 42/54/41 34/45/41
f 42/55/13 50/72/13 51/73/13 43/57/13
f 43/57/12 51/73/12 52/74/12 44/59/12
f 44/59/11 52/74/11 53/75/11 45/61/11
f 45/61/10 53/75/10 54/76/10 46/64/10
f 46/65/17 54/77/17 55/78/17 47/67/17
f 47/67/16 55/78/16 56/79/16 48/69/16
f 48/69/15 56/79/15 57/80/15 49/71/15
f 49/71/14 57/80/14 50/72/14 42/55/14
f 50/72/21 58/81/21 59/82/21 51/73/21
f 51/73/20 59/82/20 60/83/20 52/74/20
f 52/74/19 60/83/19 61/84/19 53/75/19
f 53/75/18 61/84/18 62/85/18 54/76/18
f 54/77/25 62/86/25 63/87/25 55/78/25
f 55/78/24 63/87/24 64/88/24 56/79/24
f 56/79/23 64/88/23 65/89/23 57/80/23
f 57/80/22 65/89/22 58/81/22 50/72/22
f 58/81/29 66/90/29 67/91/29 59/82/29
f 59/82/28 67/91/28 68/92/28 60/83/28
f 60/83/27 68/92/27 69/93/27 61/84/27
f 61/84/26 69/93/26 70/94/26 62/85/26
f 62/86/33 70/95/33 71/96/33 63/87/33
f 63/87/32 71/96/32 72/97/32 64/88/32
f 64/88/31 72/97/31 73/98/31 65/89/31
f 65/89/30 73/98/30 66/90/30 58/81/30
f 66/90/37 10/18/37 11/19/37 67/91/37
f 67/91/36 11/19/36 12/20/36 68/92/36
f 68/92/35 12/20/35 13/21/35 69/93/35
f 69/93/34 13/21/34 14/22/34 70/94/34
f 70/95/41 14/23/41 15/24/41 71/96/41
f 71/96/40 15/24/40 16/25/40 72/97/40
f 72/97/39 16/25/39 17/26/39 73/98/39
f 73/98/38 17/26/38 10/18/38 66/90/38
o Cone.001
v 0.000000 0.069533 -0.558137
v 0.000000 0.180095 -0.067957
v 0.035355 0.165559 -0.066172
v 0.050000 0.130467 -0.061863
v 0.035355 0.095376 -0.057555
v 0.000000 0.080840 -0.055770
v -0.035355 0.095376 -0.057555
v -0.050000 0.130467 -0.061863
v -0.035355 0.165559 -0.066172
v 0.000000 0.069533 0.558137
v 0.000000 0.180095 0.067957
v 0.035355 0.165559 0.066172
v 0.050000 0.130467 0.061864
v 0.035355 0.095376 0.057555
v 0.000000 0.080840 0.055770
v -0.035355 0.095376 0.057555
v -0.050000 0.130467 0.061864
v -0.035355 0.165559 0.066172
vn 0.3811 0.9019 -0.2034
vn 0.9200 0.3670 -0.1378
vn 0.9200 -0.3894 -0.0449
vn 0.3811 -0.9243 0.0208
vn -0.3811 -0.9243 0.0208
vn -0.9200 -0.3894 -0.0449
vn -0.0000 0.1219 0.9925
vn -0.9200 0.3670 -0.1378
vn -0.3811 0.9019 -0.2034
vn 0.3811 0.9019 0.2034
vn 0.9200 0.3670 0.1378
vn 0.9200 -0.3894 0.0449
vn 0.3811 -0.9243 -0.0208
vn -0.3811 -0.9243 -0.0208
vn -0.9200 -0.3894 0.0449
vn -0.0000 0.1219 -0.9925
vn -0.9200 0.3670 0.1378
vn -0.3811 0.9019 0.2034
vt 0.750000 0.250000
vt 0.250000 0.490000
vt 0.750000 0.490000
vt 0.919706 0.419706
vt 0.419706 0.419706
vt 0.990000 0.250000
vt 0.490000 0.250000
vt 0.919706 0.080294
vt 0.419706 0.080294
vt 0.750000 0.010000
vt 0.250000 0.010000
vt 0.580294 0.080294
vt 0.080294 0.080294
vt 0.010000 0.250000
vt 0.510000 0.250000
vt 0.080294 0.419706
vt 0.580294 0.419706
vt 0.750000 0.250000
vt 0.250000 0.490000
vt 0.750000 0.490000
vt 0.919706 0.419706
vt 0.419706 0.419706
vt 0.990000 0.250000
vt 0.490000 0.250000
vt 0.919706 0.080294
vt 0.419706 0.080294
vt 0.750000 0.010000
vt 0.250000 0.010000
vt 0.580294 0.080294
vt 0.080294 0.080294
vt 0.010000 0.250000
vt 0.510000 0.250000
vt 0.080294 0.419706
vt 0.580294 0.419706
s 0
f 74/99/42 75/101/42 76/102/42
f 74/99/43 76/102/43 77/104/43
f 74/99/44 77/104/44 78/106/44
f 74/99/45 78/106/45 79/108/45
f 74/99/46 79/108/46 80/110/46
f 74/99/47 80/110/47 81/113/47
f 76/103/48 75/100/48 82/114/48 81/112/48 80/111/48 79/109/48 78/107/48 77/105/48
f 74/99/49 81/113/49 82/115/49
f 74/99/50 82/115/50 75/101/50
f 83/116/51 85/119/51 84/118/51
f 83/116/52 86/121/52 85/119/52
f 83/116/53 87/123/53 86/121/53
f 83/116/54 88/125/54 87/123/54
f 83/116/55 89/127/55 88/125/55
f 83/116/56 90/130/56 89/127/56
f 85/120/57 86/122/57 87/124/57 88/126/57 89/128/57 90/129/57 91/131/57 84/117/57
f 83/116/58 91/132/58 90/130/58
f 83/116/59 84/118/59 91/132/59
