# Exported from Wings 3D 2.2.6.1
mtllib Sphere.mtl
o sphere1
#114 vertices, 224 faces
v 0.19134172 0.46193977 -9.4498381e-18
v 0.17677670 0.46193977 7.3223305e-2
v 0.13529903 0.46193977 0.13529903
v 7.3223305e-2 0.46193977 0.17677670
v -8.0047659e-18 0.46193977 0.19134172
v -7.3223305e-2 0.46193977 0.17677670
v -0.13529903 0.46193977 0.13529903
v -0.17677670 0.46193977 7.3223305e-2
v -0.19134172 0.46193977 1.3982764e-17
v -0.17677670 0.46193977 -7.3223305e-2
v -0.13529903 0.46193977 -0.13529903
v -7.3223305e-2 0.46193977 -0.17677670
v -5.4869970e-17 0.46193977 -0.19134172
v 7.3223305e-2 0.46193977 -0.17677670
v 0.13529903 0.46193977 -0.13529903
v 0.17677670 0.46193977 -7.3223305e-2
v 0.35355339 0.35355339 -9.4498381e-18
v 0.32664074 0.35355339 0.13529903
v 0.25000000 0.35355339 0.25000000
v 0.13529903 0.35355339 0.32664074
v 1.9278345e-18 0.35355339 0.35355339
v -0.13529903 0.35355339 0.32664074
v -0.25000000 0.35355339 0.25000000
v -0.32664074 0.35355339 0.13529903
v -0.35355339 0.35355339 3.3847965e-17
v -0.32664074 0.35355339 -0.13529903
v -0.25000000 0.35355339 -0.25000000
v -0.13529903 0.35355339 -0.32664074
v -8.4667771e-17 0.35355339 -0.35355339
v 0.13529903 0.35355339 -0.32664074
v 0.25000000 0.35355339 -0.25000000
v 0.32664074 0.35355339 -0.13529903
v 0.46193977 0.19134172 -9.4498381e-18
v 0.42677670 0.19134172 0.17677670
v 0.32664074 0.19134172 0.32664074
v 0.17677670 0.19134172 0.42677670
v 8.5645859e-18 0.19134172 0.46193977
v -0.17677670 0.19134172 0.42677670
v -0.32664074 0.19134172 0.32664074
v -0.42677670 0.19134172 0.17677670
v -0.46193977 0.19134172 4.7121468e-17
v -0.42677670 0.19134172 -0.17677670
v -0.32664074 0.19134172 -0.32664074
v -0.17677670 0.19134172 -0.42677670
v -1.0457803e-16 0.19134172 -0.46193977
v 0.17677670 0.19134172 -0.42677670
v 0.32664074 0.19134172 -0.32664074
v 0.42677670 0.19134172 -0.17677670
v 0.50000000 1.0073552e-16 -9.4498381e-18
v 0.46193977 1.0073552e-16 0.19134172
v 0.35355339 1.0073552e-16 0.35355339
v 0.19134172 1.0073552e-16 0.46193977
v 1.0895103e-17 1.0073552e-16 0.50000000
v -0.19134172 1.0073552e-16 0.46193977
v -0.35355339 1.0073552e-16 0.35355339
v -0.46193977 1.0073552e-16 0.19134172
v -0.50000000 1.0073552e-16 5.1782502e-17
v -0.46193977 1.0073552e-16 -0.19134172
v -0.35355339 1.0073552e-16 -0.35355339
v -0.19134172 1.0073552e-16 -0.46193977
v -1.1156958e-16 1.0073552e-16 -0.50000000
v 0.19134172 1.0073552e-16 -0.46193977
v 0.35355339 1.0073552e-16 -0.35355339
v 0.46193977 1.0073552e-16 -0.19134172
v 0.46193977 -0.19134172 -9.4498381e-18
v 0.42677670 -0.19134172 0.17677670
v 0.32664074 -0.19134172 0.32664074
v 0.17677670 -0.19134172 0.42677670
v 8.5645859e-18 -0.19134172 0.46193977
v -0.17677670 -0.19134172 0.42677670
v -0.32664074 -0.19134172 0.32664074
v -0.42677670 -0.19134172 0.17677670
v -0.46193977 -0.19134172 4.7121468e-17
v -0.42677670 -0.19134172 -0.17677670
v -0.32664074 -0.19134172 -0.32664074
v -0.17677670 -0.19134172 -0.42677670
v -1.0457803e-16 -0.19134172 -0.46193977
v 0.17677670 -0.19134172 -0.42677670
v 0.32664074 -0.19134172 -0.32664074
v 0.42677670 -0.19134172 -0.17677670
v 0.35355339 -0.35355339 -9.4498381e-18
v 0.32664074 -0.35355339 0.13529903
v 0.25000000 -0.35355339 0.25000000
v 0.13529903 -0.35355339 0.32664074
v 1.9278345e-18 -0.35355339 0.35355339
v -0.13529903 -0.35355339 0.32664074
v -0.25000000 -0.35355339 0.25000000
v -0.32664074 -0.35355339 0.13529903
v -0.35355339 -0.35355339 3.3847965e-17
v -0.32664074 -0.35355339 -0.13529903
v -0.25000000 -0.35355339 -0.25000000
v -0.13529903 -0.35355339 -0.32664074
v -8.4667771e-17 -0.35355339 -0.35355339
v 0.13529903 -0.35355339 -0.32664074
v 0.25000000 -0.35355339 -0.25000000
v 0.32664074 -0.35355339 -0.13529903
v 0.19134172 -0.46193977 -9.4498381e-18
v 0.17677670 -0.46193977 7.3223305e-2
v 0.13529903 -0.46193977 0.13529903
v 7.3223305e-2 -0.46193977 0.17677670
v -8.0047659e-18 -0.46193977 0.19134172
v -7.3223305e-2 -0.46193977 0.17677670
v -0.13529903 -0.46193977 0.13529903
v -0.17677670 -0.46193977 7.3223305e-2
v -0.19134172 -0.46193977 1.3982764e-17
v -0.17677670 -0.46193977 -7.3223305e-2
v -0.13529903 -0.46193977 -0.13529903
v -7.3223305e-2 -0.46193977 -0.17677670
v -5.4869970e-17 -0.46193977 -0.19134172
v 7.3223305e-2 -0.46193977 -0.17677670
v 0.13529903 -0.46193977 -0.13529903
v 0.17677670 -0.46193977 -7.3223305e-2
v -1.9721067e-17 0.50000000 -9.4498381e-18
v -1.9721067e-17 -0.50000000 -9.4498381e-18
vt 0.0000000e+0 0.16921470
vt 0.0000000e+0 0.51438435
vt 0.0000000e+0 0.84232222
vt 7.1389277e-3 0.25593333
vt 7.1389277e-3 0.42766572
vt 9.8703243e-3 8.3304707e-2
vt 9.8703243e-3 0.60029434
vt 1.1906907e-2 0.90296377
vt 1.2015392e-2 0.78191677
vt 3.0175697e-2 0.34179952
vt 3.0175697e-2 0.34179952
vt 3.4717929e-2 1.9428903e-16
vt 3.4717929e-2 0.68359905
vt 4.6056396e-2 0.73064427
vt 4.6231961e-2 0.95476731
vt 8.1159793e-2 0.17022908
vt 8.1159793e-2 0.51336997
vt 8.2119554e-2 0.84214922
vt 8.3522245e-2 0.24779267
vt 8.3522245e-2 0.43580637
vt 8.5247152e-2 9.3015395e-2
vt 8.5247152e-2 0.59058365
vt 8.7858553e-2 0.81305052
vt 8.7973865e-2 0.87126506
vt 9.2373248e-2 0.33087776
vt 9.2373248e-2 0.35272129
vt 9.5180570e-2 1.1081868e-2
vt 9.5180570e-2 0.67251718
vt 9.7024915e-2 0.69614979
vt 9.8337941e-2 0.98863148
vt 0.10426742 0.78834120
vt 0.10455337 0.89592624
vt 0.12883020 0.77171380
vt 0.12936065 0.91228633
vt 0.15475217 0.35602326
vt 0.15475217 0.32757579
vt 0.15515885 0.24584777
vt 0.15515885 0.43775128
vt 0.15588575 0.17089976
vt 0.15588575 0.51269929
vt 0.15661264 9.5951753e-2
vt 0.15661264 0.58764729
vt 0.15701932 1.4223735e-2
vt 0.15701932 0.66937531
vt 0.15732141 0.68359905
vt 0.15787685 0.76571690
vt 0.15820206 0.84179952
vt 0.15852728 0.91788214
vt 0.15908272 1.00000000
vt 0.18704348 0.77131271
vt 0.18757392 0.91188525
vt 0.21185076 0.78767280
vt 0.21213671 0.89525785
vt 0.21659092 0.33071766
vt 0.21659092 0.35288139
vt 0.21806619 0.69496756
vt 0.21937921 0.98744925
vt 0.21939824 1.0921762e-2
vt 0.21939824 0.67267728
vt 0.22652434 0.24878413
vt 0.22652434 0.43481492
vt 0.22824925 9.4006849e-2
vt 0.22824925 0.58959220
vt 0.22843026 0.81233399
vt 0.22854558 0.87054853
vt 0.23061170 0.17157044
vt 0.23061170 0.51202860
vt 0.23428457 0.84144983
vt 0.27017217 0.72883174
vt 0.27034773 0.95295477
vt 0.27705356 0.34179952
vt 0.27705356 0.34179952
vt 0.28159580 0.0000000e+0
vt 0.28159580 0.68359905
vt 0.30190117 0.25849482
vt 0.30190117 0.42510423
vt 0.30438874 0.90168228
vt 0.30449722 0.78063528
vt 0.30463256 8.5866197e-2
vt 0.30463256 0.59773285
vt 0.31177149 0.17258483
vt 0.31177149 0.17258483
vt 0.31177149 0.51101422
vt 0.31177149 0.51217793
vt 0.31640413 0.84127682
vt 0.31891042 8.5866197e-2
vt 0.32030596 0.42595754
vt 0.32030596 0.59839831
vt 0.32164182 0.25849482
vt 0.34194719 1.1102230e-16
vt 0.34409271 0.68255633
vt 0.34409271 0.34179952
vt 0.34648942 0.34179952
vt 0.39283840 0.51217793
vt 0.39293129 0.17157044
vt 0.39529374 9.4006849e-2
vt 0.39602127 0.43469571
vt 0.39602127 0.58966015
vt 0.39701864 0.24878413
vt 0.40414474 1.0921762e-2
vt 0.40508642 0.35207169
vt 0.40508642 0.67228416
vt 0.40695206 0.33071766
vt 0.46652366 1.4223735e-2
vt 0.46693034 9.5951753e-2
vt 0.46753956 0.35443697
vt 0.46753956 0.43694827
vt 0.46753956 0.51217793
vt 0.46753956 0.58740759
vt 0.46753956 0.66991888
vt 0.46765724 0.17089976
vt 0.46838413 0.24584777
vt 0.46879082 0.32757579
vt 0.52836241 1.1081868e-2
vt 0.52999270 0.35207169
vt 0.52999270 0.67228416
vt 0.53116974 0.33087776
vt 0.53829583 9.3015395e-2
vt 0.53905785 0.43469571
vt 0.53905785 0.58966015
vt 0.54002074 0.24779267
vt 0.54224072 0.51217793
vt 0.54238319 0.17022908
vt 0.58882506 0.0000000e+0
vt 0.59098641 0.34179952
vt 0.59098641 0.68255633
vt 0.59336729 0.34179952
vt 0.61367266 8.3304707e-2
vt 0.61477316 0.59839831
vt 0.61477316 0.42595754
vt 0.61640406 0.25593333
vt 0.62330762 0.51217793
vt 0.62354299 0.15841286
vt 0.62354299 0.16921470
vt 0.63538027 9.7972253e-2
vt 0.63554962 0.21877427
vt 0.66943547 4.6402739e-2
vt 0.66958921 0.27004771
vt 0.70552771 0.15843129
vt 0.71127541 0.12933430
vt 0.71131745 0.18752218
vt 0.72059492 0.30456736
vt 0.72086946 1.1526377e-2
vt 0.72772040 0.21223542
vt 0.72775348 0.10462645
vt 0.75231008 0.22881909
vt 0.75245980 8.8114280e-2
vt 0.78110362 0.31713193
vt 0.78141548 0.23472505
vt 0.78151913 0.15856597
vt 0.78162279 8.2406876e-2
vt 0.78193465 0.0000000e+0
vt 0.81057847 0.22901765
vt 0.81072819 8.8312839e-2
vt 0.83528479 0.21250549
vt 0.83531787 0.10489651
vt 0.84216881 0.30560555
vt 0.84244335 1.2564575e-2
vt 0.85172082 0.12960975
vt 0.85176286 0.18779763
vt 0.85751056 0.15870064
vt 0.89344906 4.7084223e-2
vt 0.89360280 0.27072919
vt 0.92748865 9.8357659e-2
vt 0.92765800 0.21915968
vt 0.93949528 0.15871907
vn 0.44254783 0.89674490 -5.6719445e-17
vn 0.35310199 0.92408176 0.14625963
vn 0.31292857 0.89674490 0.31292857
vn 0.14625963 0.92408176 0.35310199
vn -2.3633102e-18 0.89674490 0.44254783
vn -0.14625963 0.92408176 0.35310199
vn -0.31292857 0.89674490 0.31292857
vn -0.35310199 0.92408176 0.14625963
vn -0.44254783 0.89674490 -1.4652523e-16
vn -0.35310199 0.92408176 -0.14625963
vn -0.31292857 0.89674490 -0.31292857
vn -0.14625963 0.92408176 -0.35310199
vn -1.6070509e-16 0.89674490 -0.44254783
vn 0.14625963 0.92408176 -0.35310199
vn 0.31292857 0.89674490 -0.31292857
vn 0.35310199 0.92408176 -0.14625963
vn 0.70658450 0.70762868 7.1443235e-18
vn 0.65279895 0.70762868 0.27039818
vn 0.49963069 0.70762868 0.49963069
vn 0.27039818 0.70762868 0.65279895
vn 0.0000000e+0 0.70762868 0.70658450
vn -0.27039818 0.70762868 0.65279895
vn -0.49963069 0.70762868 0.49963069
vn -0.65279895 0.70762868 0.27039818
vn -0.70658450 0.70762868 2.8577294e-17
vn -0.65279895 0.70762868 -0.27039818
vn -0.49963069 0.70762868 -0.49963069
vn -0.27039818 0.70762868 -0.65279895
vn 0.0000000e+0 0.70762868 -0.70658450
vn 0.27039818 0.70762868 -0.65279895
vn 0.49963069 0.70762868 -0.49963069
vn 0.65279895 0.70762868 -0.27039818
vn 0.92368212 0.38315969 -1.2941152e-16
vn 0.85337100 0.38315969 0.35347784
vn 0.65314189 0.38315969 0.65314189
vn 0.35347784 0.38315969 0.85337100
vn 0.0000000e+0 0.38315969 0.92368212
vn -0.35347784 0.38315969 0.85337100
vn -0.65314189 0.38315969 0.65314189
vn -0.85337100 0.38315969 0.35347784
vn -0.92368212 0.38315969 2.7320210e-16
vn -0.85337100 0.38315969 -0.35347784
vn -0.65314189 0.38315969 -0.65314189
vn -0.35347784 0.38315969 -0.85337100
vn -1.0424817e-16 0.38315969 -0.92368212
vn 0.35347784 0.38315969 -0.85337100
vn 0.65314189 0.38315969 -0.65314189
vn 0.85337100 0.38315969 -0.35347784
vn 1.00000000 1.4416425e-17 -2.5949565e-16
vn 0.92387953 7.5686232e-17 0.38268343
vn 0.70710678 1.0091498e-16 0.70710678
vn 0.38268343 1.8020531e-17 0.92387953
vn 0.0000000e+0 1.4416425e-17 1.00000000
vn -0.38268343 1.0812319e-17 0.92387953
vn -0.70710678 1.0812319e-16 0.70710678
vn -0.92387953 7.9290338e-17 0.38268343
vn -1.00000000 7.2082126e-18 1.7299710e-16
vn -0.92387953 -3.2436957e-17 -0.38268343
vn -0.70710678 -1.1533140e-16 -0.70710678
vn -0.38268343 -1.0812319e-17 -0.92387953
vn -1.4416425e-17 1.4416425e-17 -1.00000000
vn 0.38268343 -7.2082126e-18 -0.92387953
vn 0.70710678 1.4416425e-17 -0.70710678
vn 0.92387953 -2.5228744e-17 -0.38268343
vn 0.92368212 -0.38315969 -1.4379058e-16
vn 0.85337100 -0.38315969 0.35347784
vn 0.65314189 -0.38315969 0.65314189
vn 0.35347784 -0.38315969 0.85337100
vn 1.7973822e-17 -0.38315969 0.92368212
vn -0.35347784 -0.38315969 0.85337100
vn -0.65314189 -0.38315969 0.65314189
vn -0.85337100 -0.38315969 0.35347784
vn -0.92368212 -0.38315969 2.6241780e-16
vn -0.85337100 -0.38315969 -0.35347784
vn -0.65314189 -0.38315969 -0.65314189
vn -0.35347784 -0.38315969 -0.85337100
vn -1.1143770e-16 -0.38315969 -0.92368212
vn 0.35347784 -0.38315969 -0.85337100
vn 0.65314189 -0.38315969 -0.65314189
vn 0.85337100 -0.38315969 -0.35347784
vn 0.70658450 -0.70762868 3.5721617e-18
vn 0.65279895 -0.70762868 0.27039818
vn 0.49963069 -0.70762868 0.49963069
vn 0.27039818 -0.70762868 0.65279895
vn 5.0010264e-17 -0.70762868 0.70658450
vn -0.27039818 -0.70762868 0.65279895
vn -0.49963069 -0.70762868 0.49963069
vn -0.65279895 -0.70762868 0.27039818
vn -0.70658450 -0.70762868 1.8218025e-16
vn -0.65279895 -0.70762868 -0.27039818
vn -0.49963069 -0.70762868 -0.49963069
vn -0.27039818 -0.70762868 -0.65279895
vn 0.0000000e+0 -0.70762868 -0.70658450
vn 0.27039818 -0.70762868 -0.65279895
vn 0.49963069 -0.70762868 -0.49963069
vn 0.65279895 -0.70762868 -0.27039818
vn 0.44254783 -0.89674490 -1.0398565e-16
vn 0.35310199 -0.92408176 0.14625963
vn 0.31292857 -0.89674490 0.31292857
vn 0.14625963 -0.92408176 0.35310199
vn -1.4179861e-17 -0.89674490 0.44254783
vn -0.14625963 -0.92408176 0.35310199
vn -0.31292857 -0.89674490 0.31292857
vn -0.35310199 -0.92408176 0.14625963
vn -0.44254783 -0.89674490 3.0723033e-17
vn -0.35310199 -0.92408176 -0.14625963
vn -0.31292857 -0.89674490 -0.31292857
vn -0.14625963 -0.92408176 -0.35310199
vn -4.7266204e-18 -0.89674490 -0.44254783
vn 0.14625963 -0.92408176 -0.35310199
vn 0.31292857 -0.89674490 -0.31292857
vn 0.35310199 -0.92408176 -0.14625963
vn -1.2390280e-17 1.00000000 1.3717810e-17
vn 1.2390280e-17 -1.00000000 -4.4250999e-19
g sphere1
usemtl sphere1_auv
s 1
f 1/68/1 18/78/18 17/85/17
f 1/68/1 32/77/32 16/65/16
f 1/68/1 113/47/113 2/64/2
f 2/64/2 18/78/18 1/68/1
f 2/64/2 113/47/113 3/52/3
f 3/52/3 18/78/18 2/64/2
f 3/52/3 20/56/20 19/69/19
f 3/52/3 113/47/113 4/50/4
f 4/50/4 20/56/20 3/52/3
f 4/50/4 113/47/113 5/46/5
f 5/46/5 20/56/20 4/50/4
f 5/46/5 22/29/22 21/45/21
f 5/46/5 113/47/113 6/33/6
f 6/33/6 22/29/22 5/46/5
f 6/33/6 113/47/113 7/31/7
f 7/31/7 22/29/22 6/33/6
f 7/31/7 24/9/24 23/14/23
f 7/31/7 113/47/113 8/23/8
f 8/23/8 24/9/24 7/31/7
f 8/23/8 113/47/113 9/18/9
f 9/18/9 24/9/24 8/23/8
f 9/18/9 26/8/26 25/3/25
f 9/18/9 113/47/113 10/24/10
f 10/24/10 26/8/26 9/18/9
f 10/24/10 113/47/113 11/32/11
f 11/32/11 26/8/26 10/24/10
f 11/32/11 28/30/28 27/15/27
f 11/32/11 113/47/113 12/34/12
f 12/34/12 28/30/28 11/32/11
f 12/34/12 113/47/113 13/48/13
f 13/48/13 28/30/28 12/34/12
f 13/48/13 30/57/30 29/49/29
f 13/48/13 113/47/113 14/51/14
f 14/51/14 30/57/30 13/48/13
f 14/51/14 113/47/113 15/53/15
f 15/53/15 30/57/30 14/51/14
f 15/53/15 32/77/32 31/70/31
f 15/53/15 113/47/113 16/65/16
f 16/65/16 32/77/32 15/53/15
f 16/65/16 113/47/113 1/68/1
f 17/85/17 32/77/32 1/68/1
f 17/44/17 33/42/33 32/59/32
f 18/28/18 33/42/33 17/44/17
f 18/28/18 35/7/35 34/22/34
f 19/69/19 18/78/18 3/52/3
f 19/13/19 35/7/35 18/28/18
f 20/116/20 35/129/35 19/126/19
f 20/116/20 37/109/37 36/120/36
f 21/45/21 20/56/20 5/46/5
f 21/110/21 37/109/37 20/116/20
f 22/102/22 37/109/37 21/110/21
f 22/102/22 39/88/39 38/98/38
f 23/14/23 22/29/22 7/31/7
f 23/91/23 39/88/39 22/102/22
f 24/117/24 39/131/39 23/127/23
f 24/117/24 41/112/41 40/121/40
f 25/3/25 24/9/24 9/18/9
f 25/113/25 41/112/41 24/117/24
f 26/103/26 41/112/41 25/113/25
f 26/103/26 43/89/43 42/99/42
f 27/15/27 26/8/26 11/32/11
f 27/93/27 43/89/43 26/103/26
f 28/54/28 43/75/43 27/72/27
f 28/54/28 45/37/45 44/60/44
f 29/49/29 28/30/28 13/48/13
f 29/36/29 45/37/45 28/54/28
f 30/25/30 45/37/45 29/36/29
f 30/25/30 47/4/47 46/19/46
f 31/70/31 30/57/30 15/53/15
f 31/11/31 47/4/47 30/25/30
f 32/59/32 33/42/33 48/63/48
f 32/59/32 47/80/47 31/74/31
f 33/42/33 50/17/50 49/40/49
f 33/42/33 64/67/64 48/63/48
f 34/22/34 33/42/33 18/28/18
f 34/22/34 50/17/50 33/42/33
f 35/7/35 50/17/50 34/22/34
f 35/129/35 52/122/52 51/132/51
f 36/120/36 35/129/35 20/116/20
f 36/120/36 52/122/52 35/129/35
f 37/109/37 52/122/52 36/120/36
f 37/109/37 54/94/54 53/108/53
f 38/98/38 37/109/37 22/102/22
f 38/98/38 54/94/54 37/109/37
f 39/88/39 54/94/54 38/98/38
f 39/131/39 56/123/56 55/134/55
f 40/121/40 39/131/39 24/117/24
f 40/121/40 56/123/56 39/131/39
f 41/112/41 56/123/56 40/121/40
f 41/112/41 58/95/58 57/111/57
f 42/99/42 41/112/41 26/103/26
f 42/99/42 58/95/58 41/112/41
f 43/89/43 58/95/58 42/99/42
f 43/75/43 60/66/60 59/82/59
f 44/60/44 43/75/43 28/54/28
f 44/60/44 60/66/60 43/75/43
f 45/37/45 60/66/60 44/60/44
f 45/37/45 62/16/62 61/39/61
f 46/19/46 45/37/45 30/25/30
f 46/19/46 62/16/62 45/37/45
f 47/4/47 62/16/62 46/19/46
f 47/80/47 64/67/64 63/83/63
f 48/63/48 47/80/47 32/59/32
f 48/63/48 64/67/64 47/80/47
f 49/40/49 64/67/64 33/42/33
f 49/40/49 65/38/65 64/67/64
f 50/17/50 65/38/65 49/40/49
f 50/17/50 67/5/67 66/20/66
f 51/2/51 50/17/50 35/7/35
f 51/2/51 67/5/67 50/17/50
f 52/122/52 67/130/67 51/132/51
f 52/122/52 69/107/69 68/119/68
f 53/108/53 52/122/52 37/109/37
f 53/108/53 69/107/69 52/122/52
f 54/94/54 69/107/69 53/108/53
f 54/94/54 71/87/71 70/97/70
f 55/84/55 54/94/54 39/88/39
f 55/84/55 71/87/71 54/94/54
f 56/123/56 71/128/71 55/134/55
f 56/123/56 73/105/73 72/118/72
f 57/111/57 56/123/56 41/112/41
f 57/111/57 73/105/73 56/123/56
f 58/95/58 73/105/73 57/111/57
f 58/95/58 75/86/75 74/96/74
f 59/81/59 58/95/58 43/89/43
f 59/81/59 75/86/75 58/95/58
f 60/66/60 75/79/75 59/82/59
f 60/66/60 77/41/77 76/62/76
f 61/39/61 60/66/60 45/37/45
f 61/39/61 77/41/77 60/66/60
f 62/16/62 77/41/77 61/39/61
f 62/16/62 79/6/79 78/21/78
f 63/1/63 62/16/62 47/4/47
f 63/1/63 79/6/79 62/16/62
f 64/67/64 65/38/65 80/61/80
f 64/67/64 79/76/79 63/83/63
f 65/38/65 82/26/82 81/35/81
f 65/38/65 96/55/96 80/61/80
f 66/20/66 65/38/65 50/17/50
f 66/20/66 82/26/82 65/38/65
f 67/5/67 82/26/82 66/20/66
f 67/130/67 84/115/84 83/125/83
f 68/119/68 67/130/67 52/122/52
f 68/119/68 84/115/84 67/130/67
f 69/107/69 84/115/84 68/119/68
f 69/107/69 86/101/86 85/106/85
f 70/97/70 69/107/69 54/94/54
f 70/97/70 86/101/86 69/107/69
f 71/87/71 86/101/86 70/97/70
f 71/128/71 88/114/88 87/124/87
f 72/118/72 71/128/71 56/123/56
f 72/118/72 88/114/88 71/128/71
f 73/105/73 88/114/88 72/118/72
f 73/105/73 90/100/90 89/104/89
f 74/96/74 73/105/73 58/95/58
f 74/96/74 90/100/90 73/105/73
f 75/86/75 90/100/90 74/96/74
f 75/79/75 92/58/92 91/73/91
f 76/62/76 75/79/75 60/66/60
f 76/62/76 92/58/92 75/79/75
f 77/41/77 92/58/92 76/62/76
f 77/41/77 94/27/94 93/43/93
f 78/21/78 77/41/77 62/16/62
f 78/21/78 94/27/94 77/41/77
f 79/6/79 94/27/94 78/21/78
f 79/76/79 96/55/96 95/71/95
f 80/61/80 79/76/79 64/67/64
f 80/61/80 96/55/96 79/76/79
f 81/35/81 96/55/96 65/38/65
f 81/133/81 97/139/97 96/136/96
f 82/135/82 97/139/97 81/133/81
f 82/135/82 99/145/99 98/140/98
f 83/10/83 82/26/82 67/5/67
f 83/137/83 99/145/99 82/135/82
f 84/143/84 99/145/99 83/137/83
f 84/143/84 101/151/101 100/147/100
f 85/106/85 84/115/84 69/107/69
f 85/152/85 101/151/101 84/143/84
f 86/158/86 101/151/101 85/152/85
f 86/158/86 103/156/103 102/154/102
f 87/92/87 86/101/86 71/87/71
f 87/162/87 103/156/103 86/158/86
f 88/164/88 103/156/103 87/162/87
f 88/164/88 105/161/105 104/159/104
f 89/104/89 88/114/88 73/105/73
f 89/166/89 105/161/105 88/164/88
f 90/165/90 105/161/105 89/166/89
f 90/165/90 107/155/107 106/160/106
f 91/90/91 90/100/90 75/86/75
f 91/163/91 107/155/107 90/165/90
f 92/157/92 107/155/107 91/163/91
f 92/157/92 109/149/109 108/153/108
f 93/43/93 92/58/92 77/41/77
f 93/148/93 109/149/109 92/157/92
f 94/142/94 109/149/109 93/148/93
f 94/142/94 111/144/111 110/146/110
f 95/12/95 94/27/94 79/6/79
f 95/138/95 111/144/111 94/142/94
f 96/136/96 97/139/97 112/141/112
f 96/136/96 111/144/111 95/138/95
f 97/139/97 114/150/114 112/141/112
f 98/140/98 97/139/97 82/135/82
f 98/140/98 114/150/114 97/139/97
f 99/145/99 114/150/114 98/140/98
f 100/147/100 99/145/99 84/143/84
f 100/147/100 114/150/114 99/145/99
f 101/151/101 114/150/114 100/147/100
f 102/154/102 101/151/101 86/158/86
f 102/154/102 114/150/114 101/151/101
f 103/156/103 114/150/114 102/154/102
f 104/159/104 103/156/103 88/164/88
f 104/159/104 114/150/114 103/156/103
f 105/161/105 114/150/114 104/159/104
f 106/160/106 105/161/105 90/165/90
f 106/160/106 114/150/114 105/161/105
f 107/155/107 114/150/114 106/160/106
f 108/153/108 107/155/107 92/157/92
f 108/153/108 114/150/114 107/155/107
f 109/149/109 114/150/114 108/153/108
f 110/146/110 109/149/109 94/142/94
f 110/146/110 114/150/114 109/149/109
f 111/144/111 114/150/114 110/146/110
f 112/141/112 111/144/111 96/136/96
f 112/141/112 114/150/114 111/144/111
