# Blender 3.4.1
# www.blender.org
mtllib Weapon.mtl
o Cone
v 0.000000 0.000000 -0.350000
v 0.000000 0.000000 -0.250000
v -0.282416 -0.163053 0.628317
v -0.227545 0.000000 0.332636
v -0.342227 -0.340786 1.150000
v -0.340786 -0.342227 1.150000
v -0.163053 -0.282416 0.628317
v 0.000000 -0.227545 0.332636
v -0.000000 -0.227545 0.332636
v 0.163053 -0.282416 0.628317
v 0.282416 -0.163053 0.628317
v 0.342226 -0.340786 1.150000
v 0.340786 -0.342227 1.150000
v 0.227545 0.000000 0.332636
v 0.282416 0.163053 0.628317
v 0.227545 0.000000 0.332636
v 0.342226 0.340786 1.150000
v 0.340786 0.342227 1.150000
v 0.163053 0.282416 0.628317
v 0.000000 0.227545 0.332636
v 0.000000 0.227545 0.332636
v -0.163053 0.282416 0.628317
v -0.330565 -0.338787 1.150000
v -0.338787 -0.330565 1.150000
v 0.338787 -0.330565 1.150000
v 0.330565 -0.338787 1.150000
v 0.330565 0.338787 1.150000
v 0.338787 0.330565 1.150000
v -0.340786 0.342227 1.150000
v -0.342227 0.340786 1.150000
v -0.338787 0.330565 1.150000
v -0.330565 0.338787 1.150000
v -0.282416 0.163053 0.628317
v -0.163053 0.282416 0.681731
v -0.000000 0.227545 0.400130
v -0.282416 0.163053 0.681731
v -0.227545 -0.000000 0.400130
v -0.282416 -0.163053 0.681731
v -0.163053 -0.282416 0.681730
v -0.000000 -0.227545 0.400129
v -0.000000 -0.227545 0.400129
v 0.163053 -0.282416 0.681731
v 0.282416 -0.163053 0.681730
v 0.227545 -0.000000 0.400129
v 0.282416 0.163053 0.681730
v 0.227545 0.000000 0.400129
v 0.163053 0.282416 0.681731
vn -0.9194 -0.2464 -0.3065
vn -0.6731 -0.6731 -0.3065
vn -0.2464 -0.9194 -0.3065
vn 0.2464 -0.9194 -0.3065
vn 0.6731 -0.6731 -0.3065
vn 0.9194 -0.2464 -0.3065
vn 0.9085 0.2879 -0.3028
vn 0.6731 0.6731 -0.3065
vn 0.2464 0.9194 -0.3065
vn -0.0000 -0.0000 -1.0000
vn -0.0000 -0.0000 1.0000
vn -0.6731 0.6731 -0.3065
vn -0.9194 0.2464 -0.3065
vn 0.2452 -0.9150 0.3203
vn 0.6699 -0.6699 0.3203
vn 0.9150 -0.2452 0.3203
vn 0.9150 0.2452 0.3203
vn 0.6699 0.6699 0.3203
vn 0.2275 0.9191 0.3217
vn -0.2452 0.9150 0.3203
vn -0.6699 0.6699 0.3203
vn -0.9150 0.2452 0.3203
vn -0.9439 -0.0000 0.3304
vn -0.6699 -0.6699 0.3203
vn -0.2452 -0.9150 0.3203
vn -0.3189 0.9478 -0.0000
vn 0.3189 0.9478 -0.0000
vn -0.9478 -0.3189 -0.0000
vn -0.9478 0.3189 -0.0000
vn 0.3189 -0.9478 -0.0000
vn -0.3189 -0.9478 -0.0000
vn 0.9478 0.3189 -0.0000
vn 0.9478 -0.3189 -0.0000
vn -0.1860 -0.9321 -0.3107
vn 0.9194 0.2464 -0.3065
vn -0.2464 0.9194 -0.3065
vn 0.2452 0.9150 0.3203
vn -0.9150 -0.2452 0.3203
vn -0.0000 -1.0000 -0.0000
vn -0.0000 -0.9981 -0.0624
vn 0.8643 0.1796 -0.4699
vn 0.9701 0.2425 -0.0000
vt 0.250000 0.250000
vt 0.250000 0.250000
vt 0.328265 0.385560
vt 0.259704 0.605987
vt 0.250000 0.359222
vt 0.375000 0.559787
vt 0.413577 0.414269
vt 0.913577 0.414269
vt 0.134028 0.687500
vt 0.914269 0.413577
vt 0.414269 0.413577
vt 0.615972 0.687500
vt 0.385560 0.328265
vt 0.490296 0.605987
vt 0.359222 0.250000
vt 0.375000 0.559787
vt 0.359222 0.250000
vt 0.375000 0.559787
vt 0.385560 0.171735
vt 0.259704 0.605987
vt 0.328265 0.114440
vt 0.490296 0.605987
vt 0.413577 0.085731
vt 0.913577 0.085731
vt 0.615972 0.687500
vt 0.414269 0.086423
vt 0.914269 0.086423
vt 0.134028 0.687500
vt 0.250000 0.140778
vt 0.375000 0.559787
vt 0.171735 0.114440
vt 0.259704 0.605987
vt 0.250000 0.140778
vt 0.375000 0.559787
vt 0.586423 0.085731
vt 0.086423 0.085731
vt 0.134028 0.687500
vt 0.085731 0.086423
vt 0.585731 0.086423
vt 0.615972 0.687500
vt 0.114440 0.171735
vt 0.490296 0.605987
vt 0.140778 0.250000
vt 0.375000 0.559787
vt 0.140778 0.250000
vt 0.375000 0.559787
vt 0.114440 0.328265
vt 0.259704 0.605987
vt 0.912618 0.408671
vt 0.401116 0.095126
vt 0.608745 0.687500
vt 0.908671 0.412618
vt 0.404874 0.098884
vt 0.141255 0.687500
vt 0.908671 0.087382
vt 0.095126 0.098884
vt 0.608745 0.687500
vt 0.912618 0.091329
vt 0.098884 0.095126
vt 0.141255 0.687500
vt 0.587382 0.091329
vt 0.098884 0.404874
vt 0.608745 0.687500
vt 0.591329 0.087382
vt 0.095126 0.401116
vt 0.141255 0.687500
vt 0.585731 0.413577
vt 0.085731 0.413577
vt 0.134028 0.687500
vt 0.586423 0.414269
vt 0.086423 0.414269
vt 0.615972 0.687500
vt 0.591329 0.412618
vt 0.404874 0.401116
vt 0.608745 0.687500
vt 0.587382 0.408671
vt 0.401116 0.404874
vt 0.141255 0.687500
vt 0.171735 0.385560
vt 0.490296 0.605987
vt 0.324538 0.379104
vt 0.259704 0.614333
vt 0.250000 0.354021
vt 0.375000 0.570333
vt 0.379104 0.324538
vt 0.490296 0.614333
vt 0.354021 0.250000
vt 0.375000 0.570333
vt 0.379104 0.175462
vt 0.259704 0.614333
vt 0.324538 0.120896
vt 0.490296 0.614333
vt 0.250000 0.145979
vt 0.375000 0.570333
vt 0.250000 0.145979
vt 0.375000 0.570333
vt 0.175462 0.120896
vt 0.259704 0.614333
vt 0.120896 0.175462
vt 0.490296 0.614333
vt 0.145979 0.250000
vt 0.375000 0.570333
vt 0.120896 0.324538
vt 0.259704 0.614333
vt 0.145979 0.250000
vt 0.375000 0.570333
vt 0.175462 0.379104
vt 0.490296 0.614333
s 0
f 3/3/1 4/5/1 1/1/1
f 3/3/2 7/13/2 6/11/2
f 1/1/3 9/17/3 7/13/3
f 8/15/4 1/1/4 10/19/4
f 1/1/5 12/23/5 13/26/5
f 11/21/6 1/1/6 14/29/6
f 1/1/7 16/33/7 14/29/7
f 17/36/8 1/1/8 19/41/8
f 19/41/9 1/1/9 20/43/9
f 1/1/10 21/45/10 20/43/10
f 23/49/11 5/8/11 6/10/11
f 13/27/11 25/55/11 26/58/11
f 18/39/11 28/64/11 17/35/11
f 31/73/11 29/67/11 30/70/11
f 1/1/12 30/71/12 29/68/12
f 33/79/13 1/1/13 4/5/13
f 2/2/14 35/83/14 34/81/14
f 2/2/15 32/77/15 31/74/15
f 37/87/16 2/2/16 36/85/16
f 2/2/17 37/87/17 38/89/17
f 38/89/18 23/50/18 39/91/18
f 2/2/19 41/95/19 40/93/19
f 40/93/20 42/97/20 2/2/20
f 42/97/21 25/56/21 43/99/21
f 2/2/22 43/99/22 44/101/22
f 46/105/23 2/2/23 44/101/23
f 28/65/24 47/107/24 2/2/24
f 35/83/25 2/2/25 47/107/25
f 47/108/26 19/42/26 21/46/26
f 22/48/27 32/78/27 34/82/27
f 36/86/28 33/80/28 37/88/28
f 3/4/29 24/54/29 38/90/29
f 7/14/30 41/96/30 39/92/30
f 9/18/31 10/20/31 42/98/31
f 11/22/32 16/34/32 43/100/32
f 15/32/33 28/66/33 45/104/33
f 6/11/2 5/7/2 3/3/2
f 3/3/2 1/1/2 7/13/2
f 1/1/34 8/15/34 9/17/34
f 13/26/5 10/19/5 1/1/5
f 1/1/5 11/21/5 12/23/5
f 1/1/35 15/31/35 16/33/35
f 19/41/8 18/38/8 17/36/8
f 17/36/8 15/31/8 1/1/8
f 1/1/36 22/47/36 21/45/36
f 23/49/11 24/52/11 5/8/11
f 13/27/11 12/24/11 25/55/11
f 18/39/11 27/61/11 28/64/11
f 31/73/11 32/76/11 29/67/11
f 29/68/12 22/47/12 1/1/12
f 1/1/12 33/79/12 30/71/12
f 31/74/15 36/85/15 2/2/15
f 2/2/15 34/81/15 32/77/15
f 39/91/18 2/2/18 38/89/18
f 38/89/18 24/53/18 23/50/18
f 2/2/37 39/91/37 41/95/37
f 43/99/21 2/2/21 42/97/21
f 42/97/21 26/59/21 25/56/21
f 46/105/38 45/103/38 2/2/38
f 2/2/24 45/103/24 28/65/24
f 28/65/24 27/62/24 47/107/24
f 47/108/26 27/63/26 18/40/26
f 19/42/10 20/44/10 21/46/10
f 21/46/26 35/84/26 47/108/26
f 47/108/26 18/40/26 19/42/26
f 35/84/27 21/46/27 22/48/27
f 22/48/27 29/69/27 32/78/27
f 34/82/27 35/84/27 22/48/27
f 36/86/28 31/75/28 30/72/28
f 33/80/28 4/6/28 37/88/28
f 36/86/28 30/72/28 33/80/28
f 37/88/29 4/6/29 3/4/29
f 3/4/29 5/9/29 24/54/29
f 38/90/29 37/88/29 3/4/29
f 39/92/30 23/51/30 6/12/30
f 7/14/30 9/18/30 41/96/30
f 39/92/30 6/12/30 7/14/30
f 40/94/39 41/96/39 9/18/39
f 9/18/40 8/16/40 10/20/40
f 10/20/31 13/28/31 26/60/31
f 42/98/31 40/94/31 9/18/31
f 10/20/31 26/60/31 42/98/31
f 43/100/32 25/57/32 12/25/32
f 11/22/41 14/30/41 16/34/41
f 16/34/42 46/106/42 44/102/42
f 43/100/32 12/25/32 11/22/32
f 16/34/32 44/102/32 43/100/32
f 45/104/33 46/106/33 16/34/33
f 15/32/33 17/37/33 28/66/33
f 45/104/33 16/34/33 15/32/33
